# Made in Blockbench 4.12.4
mtllib item.mtl

o Tube.1
v 1.943561875 -0.39691437500000004 0
v 2.001304375 -0.432790625 0
v 1.432790625 -1.001304375 0
v 1.3969143750000002 -0.9435618750000001 0
v 2.001304375 -0.432790625 0.125
v 1.432790625 -1.001304375 0.125
v 2.001304375 -0.432790625 0.5
v 1.432790625 -1.001304375 0.5
v 2.001304375 -0.432790625 0.875
v 1.432790625 -1.001304375 0.875
v 2.001304375 -0.432790625 1
v 1.432790625 -1.001304375 1
v 1.943561875 -0.39691437500000004 1
v 1.3969143750000002 -0.9435618750000001 1
v 1.943561875 -0.39691437500000004 0.875
v 1.3969143750000002 -0.9435618750000001 0.875
v 1.943561875 -0.39691437500000004 0.5
v 1.3969143750000002 -0.9435618750000001 0.5
v 1.943561875 -0.39691437500000004 0.125
v 1.3969143750000002 -0.9435618750000001 0.125
v -0.432790625 -1.001304375 0
v -0.39691437500000004 -0.9435618750000001 0
v -0.432790625 -1.001304375 0.125
v -0.432790625 -1.001304375 0.5
v -0.432790625 -1.001304375 0.875
v -0.432790625 -1.001304375 1
v -0.39691437500000004 -0.9435618750000001 1
v -0.39691437500000004 -0.9435618750000001 0.875
v -0.39691437500000004 -0.9435618750000001 0.5
v -0.39691437500000004 -0.9435618750000001 0.125
v -1.001304375 -0.432790625 0
v -0.9435618750000001 -0.39691437500000004 0
v -1.001304375 -0.432790625 0.125
v -1.001304375 -0.432790625 0.5
v -1.001304375 -0.432790625 0.875
v -1.001304375 -0.432790625 1
v -0.9435618750000001 -0.39691437500000004 1
v -0.9435618750000001 -0.39691437500000004 0.875
v -0.9435618750000001 -0.39691437500000004 0.5
v -0.9435618750000001 -0.39691437500000004 0.125
v -1.001304375 1.432790625 0
v -0.9435618750000001 1.3969143750000002 0
v -1.001304375 1.432790625 0.125
v -1.001304375 1.432790625 0.5
v -1.001304375 1.432790625 0.875
v -1.001304375 1.432790625 1
v -0.9435618750000001 1.3969143750000002 1
v -0.9435618750000001 1.3969143750000002 0.875
v -0.9435618750000001 1.3969143750000002 0.5
v -0.9435618750000001 1.3969143750000002 0.125
v -0.432790625 2.001304375 0
v -0.39691437500000004 1.943561875 0
v -0.432790625 2.001304375 0.125
v -0.432790625 2.001304375 0.5
v -0.432790625 2.001304375 0.875
v -0.432790625 2.001304375 1
v -0.39691437500000004 1.943561875 1
v -0.39691437500000004 1.943561875 0.875
v -0.39691437500000004 1.943561875 0.5
v -0.39691437500000004 1.943561875 0.125
v 1.432790625 2.001304375 0
v 1.3969143750000002 1.943561875 0
v 1.432790625 2.001304375 0.125
v 1.432790625 2.001304375 0.5
v 1.432790625 2.001304375 0.875
v 1.432790625 2.001304375 1
v 1.3969143750000002 1.943561875 1
v 1.3969143750000002 1.943561875 0.875
v 1.3969143750000002 1.943561875 0.5
v 1.3969143750000002 1.943561875 0.125
v 2.001304375 1.432790625 0
v 1.943561875 1.3969143750000002 0
v 2.001304375 1.432790625 0.125
v 2.001304375 1.432790625 0.5
v 2.001304375 1.432790625 0.875
v 2.001304375 1.432790625 1
v 1.943561875 1.3969143750000002 1
v 1.943561875 1.3969143750000002 0.875
v 1.943561875 1.3969143750000002 0.5
v 1.943561875 1.3969143750000002 0.125
vt 0.0109609375 0.70022265625
vt 0.00374296875 0.6957375
vt 0.07480703125 0.6246734375
vt 0.0792921875 0.6318914062500001
vt 0.609375 0.45206250000000003
vt 0.59375 0.45206250000000003
vt 0.59375 0.3515625
vt 0.609375 0.3515625
vt 0.59375 0.45206250000000003
vt 0.546875 0.45206250000000003
vt 0.546875 0.3515625
vt 0.59375 0.3515625
vt 0.546875 0.45206250000000003
vt 0.5 0.45206250000000003
vt 0.5 0.3515625
vt 0.546875 0.3515625
vt 0.5 0.45206250000000003
vt 0.484375 0.45206250000000003
vt 0.484375 0.3515625
vt 0.5 0.3515625
vt 0.69156953125 0.3832375
vt 0.6843515625 0.38772265625
vt 0.6160203125 0.31939140624999995
vt 0.62050546875 0.31217343750000004
vt 0.734375 0.796875
vt 0.71875 0.796875
vt 0.71875 0.700240625
vt 0.734375 0.700240625
vt 0.71875 0.796875
vt 0.671875 0.796875
vt 0.671875 0.700240625
vt 0.71875 0.700240625
vt 0.671875 0.796875
vt 0.625 0.796875
vt 0.625 0.700240625
vt 0.671875 0.700240625
vt 0.625 0.796875
vt 0.609375 0.796875
vt 0.609375 0.700240625
vt 0.625 0.700240625
vt 0.0792921875 0.6318914062500001
vt 0.07480703125 0.6246734375
vt 0.3080046875 0.6246734375
vt 0.3035203125 0.6318914062500001
vt 0.28066171875 0.828125
vt 0.28066171875 0.84375
vt 0.0474640625 0.84375
vt 0.0474640625 0.828125
vt 0.28066171875 0.84375
vt 0.28066171875 0.890625
vt 0.0474640625 0.890625
vt 0.0474640625 0.84375
vt 0.28066171875 0.890625
vt 0.28066171875 0.9375
vt 0.0474640625 0.9375
vt 0.0474640625 0.890625
vt 0.28066171875 0.9375
vt 0.2806609375 0.953125
vt 0.04746328125 0.953125
vt 0.0474640625 0.9375
vt 0.62050546875 0.31217343750000004
vt 0.6160203125 0.31939140624999995
vt 0.3917921875 0.31939140624999995
vt 0.3873078125 0.31217343750000004
vt 0.6082078125 0.875
vt 0.6082078125 0.890625
vt 0.3839796875 0.890625
vt 0.3839796875 0.875
vt 0.6082078125 0.890625
vt 0.6082078125 0.9375
vt 0.3839796875 0.9375
vt 0.3839796875 0.890625
vt 0.6082078125 0.9375
vt 0.6082078125 0.984375
vt 0.3839796875 0.984375
vt 0.3839796875 0.9375
vt 0.6082078125 0.984375
vt 0.6082078125 1
vt 0.3839796875 1
vt 0.3839796875 0.984375
vt 0.3035203125 0.6318914062500001
vt 0.3080046875 0.6246734375
vt 0.37906953125 0.6957375
vt 0.3718515625 0.70022265625
vt 0.609375 0.796875
vt 0.625 0.796875
vt 0.625 0.897375
vt 0.609375 0.897375
vt 0.625 0.796875
vt 0.671875 0.796875
vt 0.671875 0.897375
vt 0.625 0.897375
vt 0.671875 0.796875
vt 0.71875 0.796875
vt 0.71875 0.897375
vt 0.671875 0.897375
vt 0.71875 0.796875
vt 0.734375 0.796875
vt 0.734375 0.897375
vt 0.71875 0.897375
vt 0.3873078125 0.31217343750000004
vt 0.3917921875 0.31939140624999995
vt 0.3234609375 0.38772265625
vt 0.31624296875 0.38323828125000003
vt 0 0.28617812499999995
vt 0.015625 0.28617812499999995
vt 0.015625 0.3828125
vt 0 0.3828125
vt 0.015625 0.28617812499999995
vt 0.0625 0.28617812499999995
vt 0.0625 0.3828125
vt 0.015625 0.3828125
vt 0.0625 0.28617812499999995
vt 0.109375 0.28617812499999995
vt 0.109375 0.3828125
vt 0.0625 0.3828125
vt 0.109375 0.28617812499999995
vt 0.125 0.28617812499999995
vt 0.125 0.3828125
vt 0.109375 0.3828125
vt 0.3718515625 0.70022265625
vt 0.37906953125 0.6957375
vt 0.37906953125 0.92893515625
vt 0.3718515625 0.92445078125
vt 0.359375 0.40742734375
vt 0.375 0.40742734375
vt 0.375 0.640625
vt 0.359375 0.640625
vt 0.375 0.40742734375
vt 0.421875 0.40742734375
vt 0.421875 0.640625
vt 0.375 0.640625
vt 0.421875 0.40742734375
vt 0.46875 0.40742734375
vt 0.46875 0.640625
vt 0.421875 0.640625
vt 0.46875 0.40742734375
vt 0.484375 0.40742734375
vt 0.484375 0.640625
vt 0.46875 0.640625
vt 0.31624296875 0.38323828125000003
vt 0.3234609375 0.38772265625
vt 0.3234609375 0.61195078125
vt 0.31624296875 0.61643515625
vt 0.125 0.392959375
vt 0.140625 0.392959375
vt 0.140625 0.6171875
vt 0.125 0.6171875
vt 0.140625 0.392959375
vt 0.1875 0.392959375
vt 0.1875 0.6171875
vt 0.140625 0.6171875
vt 0.1875 0.392959375
vt 0.234375 0.392959375
vt 0.234375 0.6171875
vt 0.1875 0.6171875
vt 0.234375 0.392959375
vt 0.25 0.392959375
vt 0.25 0.6171875
vt 0.234375 0.6171875
vt 0.3718515625 0.92445078125
vt 0.37906953125 0.92893515625
vt 0.30800546875 1
vt 0.3035203125 0.99278203125
vt 0.125 0.29012499999999997
vt 0.140625 0.29012499999999997
vt 0.140625 0.390625
vt 0.125 0.390625
vt 0.140625 0.29012499999999997
vt 0.1875 0.29012499999999997
vt 0.1875 0.390625
vt 0.140625 0.390625
vt 0.1875 0.29012499999999997
vt 0.234375 0.29012499999999997
vt 0.234375 0.390625
vt 0.1875 0.390625
vt 0.234375 0.29012499999999997
vt 0.25 0.29012499999999997
vt 0.25 0.390625
vt 0.234375 0.390625
vt 0.31624296875 0.61643515625
vt 0.3234609375 0.61195078125
vt 0.3917921875 0.68028203125
vt 0.3873078125 0.6875
vt 0.65625 0.2421875
vt 0.671875 0.2421875
vt 0.671875 0.33882187500000005
vt 0.65625 0.33882187500000005
vt 0.671875 0.2421875
vt 0.71875 0.2421875
vt 0.71875 0.33882187500000005
vt 0.671875 0.33882187500000005
vt 0.71875 0.2421875
vt 0.765625 0.2421875
vt 0.765625 0.33882187500000005
vt 0.71875 0.33882187500000005
vt 0.765625 0.2421875
vt 0.78125 0.2421875
vt 0.78125 0.33882187500000005
vt 0.765625 0.33882187500000005
vt 0.3035203125 0.99278203125
vt 0.30800546875 1
vt 0.0748078125 1
vt 0.0792921875 0.99278203125
vt 0.0162140625 0.828125
vt 0.0162140625 0.8125
vt 0.24941171875 0.8125
vt 0.24941171875 0.828125
vt 0.0162140625 0.8125
vt 0.0162140625 0.765625
vt 0.24941171875 0.765625
vt 0.24941171875 0.8125
vt 0.0162140625 0.765625
vt 0.0162140625 0.71875
vt 0.24941171875 0.71875
vt 0.24941171875 0.765625
vt 0.0162140625 0.71875
vt 0.01621328125 0.703125
vt 0.2494109375 0.703125
vt 0.24941171875 0.71875
vt 0.3873078125 0.6875
vt 0.3917921875 0.68028203125
vt 0.6160203125 0.68028203125
vt 0.62050546875 0.6875
vt 0.3839796875 0.875
vt 0.3839796875 0.859375
vt 0.6082078125 0.859375
vt 0.6082078125 0.875
vt 0.3839796875 0.859375
vt 0.3839796875 0.8125
vt 0.6082078125 0.8125
vt 0.6082078125 0.859375
vt 0.3839796875 0.8125
vt 0.3839796875 0.765625
vt 0.6082078125 0.765625
vt 0.6082078125 0.8125
vt 0.3839796875 0.765625
vt 0.3839796875 0.75
vt 0.6082078125 0.75
vt 0.6082078125 0.765625
vt 0.0792921875 0.99278203125
vt 0.0748078125 1
vt 0.00374296875 0.92893515625
vt 0.0109609375 0.92445078125
vt 0.734375 1
vt 0.71875 1
vt 0.71875 0.8995
vt 0.734375 0.8995
vt 0.71875 1
vt 0.671875 1
vt 0.671875 0.8995
vt 0.71875 0.8995
vt 0.671875 1
vt 0.625 1
vt 0.625 0.8995
vt 0.671875 0.8995
vt 0.625 1
vt 0.609375 1
vt 0.609375 0.8995
vt 0.625 0.8995
vt 0.62050546875 0.6875
vt 0.6160203125 0.68028203125
vt 0.6843515625 0.61195078125
vt 0.69156953125 0.61643515625
vt 0.375 0.31538437500000005
vt 0.359375 0.31538437500000005
vt 0.359375 0.21875
vt 0.375 0.21875
vt 0.359375 0.31538437500000005
vt 0.3125 0.31538437500000005
vt 0.3125 0.21875
vt 0.359375 0.21875
vt 0.3125 0.31538437500000005
vt 0.265625 0.31538437500000005
vt 0.265625 0.21875
vt 0.3125 0.21875
vt 0.265625 0.31538437500000005
vt 0.25 0.31538437500000005
vt 0.25 0.21875
vt 0.265625 0.21875
vt 0.0109609375 0.92445078125
vt 0.00374296875 0.92893515625
vt 0.00374296875 0.6957375
vt 0.0109609375 0.70022265625
vt 0.125 0.6171875
vt 0.109375 0.6171875
vt 0.109375 0.38398984375
vt 0.125 0.38398984375
vt 0.109375 0.6171875
vt 0.0625 0.6171875
vt 0.0625 0.38398984375
vt 0.109375 0.38398984375
vt 0.0625 0.6171875
vt 0.015625 0.6171875
vt 0.015625 0.38398984375
vt 0.0625 0.38398984375
vt 0.015625 0.6171875
vt 0 0.6171875
vt 0 0.38398984375
vt 0.015625 0.38398984375
vt 0.69156953125 0.61643515625
vt 0.6843515625 0.61195078125
vt 0.6843515625 0.38772265625
vt 0.69156953125 0.3832375
vt 0.609375 0.6796875
vt 0.59375 0.6796875
vt 0.59375 0.455459375
vt 0.609375 0.455459375
vt 0.59375 0.6796875
vt 0.546875 0.6796875
vt 0.546875 0.455459375
vt 0.59375 0.455459375
vt 0.546875 0.6796875
vt 0.5 0.6796875
vt 0.5 0.455459375
vt 0.546875 0.455459375
vt 0.5 0.6796875
vt 0.484375 0.6796875
vt 0.484375 0.455459375
vt 0.5 0.455459375
vn 0 0 -1
vn 0.7071067811865476 -0.7071067811865476 0
vn 0.7071067811865476 -0.7071067811865476 0
vn 0.7071067811865476 -0.7071067811865476 0
vn 0.7071067811865476 -0.7071067811865476 0
vn 0 0 1
vn -0.7071067811865476 0.7071067811865476 0
vn -0.7071067811865476 0.7071067811865476 0
vn -0.7071067811865476 0.7071067811865476 0
vn -0.7071067811865476 0.7071067811865476 0
vn 0 0 -1
vn 0 -1 0
vn 0 -1 0
vn 0 -1 0
vn 0 -1 0
vn 0 0 1
vn 0 1 0
vn 0 1 0
vn 0 1 0
vn 0 1 0
vn 0 0 -1
vn -0.7071067811865476 -0.7071067811865476 0
vn -0.7071067811865476 -0.7071067811865476 0
vn -0.7071067811865476 -0.7071067811865476 0
vn -0.7071067811865476 -0.7071067811865476 0
vn 0 0 1
vn 0.7071067811865476 0.7071067811865476 0
vn 0.7071067811865476 0.7071067811865476 0
vn 0.7071067811865476 0.7071067811865476 0
vn 0.7071067811865476 0.7071067811865476 0
vn 0 0 -1
vn -1 0 0
vn -1 0 0
vn -1 0 0
vn -1 0 0
vn 0 0 1
vn 1 0 0
vn 1 0 0
vn 1 0 0
vn 1 0 0
vn 0 0 -1
vn -0.7071067811865476 0.7071067811865476 0
vn -0.7071067811865476 0.7071067811865476 0
vn -0.7071067811865476 0.7071067811865476 0
vn -0.7071067811865476 0.7071067811865476 0
vn 0 0 1
vn 0.7071067811865476 -0.7071067811865476 0
vn 0.7071067811865476 -0.7071067811865476 0
vn 0.7071067811865476 -0.7071067811865476 0
vn 0.7071067811865476 -0.7071067811865476 0
vn 0 0 -1
vn 0 1 0
vn 0 1 0
vn 0 1 0
vn 0 1 0
vn 0 0 1
vn 0 -1 0
vn 0 -1 0
vn 0 -1 0
vn 0 -1 0
vn 0 0 -1
vn 0.7071067811865476 0.7071067811865476 0
vn 0.7071067811865476 0.7071067811865476 0
vn 0.7071067811865476 0.7071067811865476 0
vn 0.7071067811865476 0.7071067811865476 0
vn 0 0 1
vn -0.7071067811865476 -0.7071067811865476 0
vn -0.7071067811865476 -0.7071067811865476 0
vn -0.7071067811865476 -0.7071067811865476 0
vn -0.7071067811865476 -0.7071067811865476 0
vn 0 0 -1
vn 1 0 0
vn 1 0 0
vn 1 0 0
vn 1 0 0
vn 0 0 1
vn -1 0 0
vn -1 0 0
vn -1 0 0
vn -1 0 0
usemtl m_f159d19e-6b5d-ea08-5d34-afa6116c9667
f 1/1/1 2/2/1 3/3/1 4/4/1
f 2/5/2 5/6/2 6/7/2 3/8/2
f 5/9/3 7/10/3 8/11/3 6/12/3
f 7/13/4 9/14/4 10/15/4 8/16/4
f 9/17/5 11/18/5 12/19/5 10/20/5
f 11/21/6 13/22/6 14/23/6 12/24/6
f 13/25/7 15/26/7 16/27/7 14/28/7
f 15/29/8 17/30/8 18/31/8 16/32/8
f 17/33/9 19/34/9 20/35/9 18/36/9
f 19/37/10 1/38/10 4/39/10 20/40/10
f 4/41/11 3/42/11 21/43/11 22/44/11
f 3/45/12 6/46/12 23/47/12 21/48/12
f 6/49/13 8/50/13 24/51/13 23/52/13
f 8/53/14 10/54/14 25/55/14 24/56/14
f 10/57/15 12/58/15 26/59/15 25/60/15
f 12/61/16 14/62/16 27/63/16 26/64/16
f 14/65/17 16/66/17 28/67/17 27/68/17
f 16/69/18 18/70/18 29/71/18 28/72/18
f 18/73/19 20/74/19 30/75/19 29/76/19
f 20/77/20 4/78/20 22/79/20 30/80/20
f 22/81/21 21/82/21 31/83/21 32/84/21
f 21/85/22 23/86/22 33/87/22 31/88/22
f 23/89/23 24/90/23 34/91/23 33/92/23
f 24/93/24 25/94/24 35/95/24 34/96/24
f 25/97/25 26/98/25 36/99/25 35/100/25
f 26/101/26 27/102/26 37/103/26 36/104/26
f 27/105/27 28/106/27 38/107/27 37/108/27
f 28/109/28 29/110/28 39/111/28 38/112/28
f 29/113/29 30/114/29 40/115/29 39/116/29
f 30/117/30 22/118/30 32/119/30 40/120/30
f 32/121/31 31/122/31 41/123/31 42/124/31
f 31/125/32 33/126/32 43/127/32 41/128/32
f 33/129/33 34/130/33 44/131/33 43/132/33
f 34/133/34 35/134/34 45/135/34 44/136/34
f 35/137/35 36/138/35 46/139/35 45/140/35
f 36/141/36 37/142/36 47/143/36 46/144/36
f 37/145/37 38/146/37 48/147/37 47/148/37
f 38/149/38 39/150/38 49/151/38 48/152/38
f 39/153/39 40/154/39 50/155/39 49/156/39
f 40/157/40 32/158/40 42/159/40 50/160/40
f 42/161/41 41/162/41 51/163/41 52/164/41
f 41/165/42 43/166/42 53/167/42 51/168/42
f 43/169/43 44/170/43 54/171/43 53/172/43
f 44/173/44 45/174/44 55/175/44 54/176/44
f 45/177/45 46/178/45 56/179/45 55/180/45
f 46/181/46 47/182/46 57/183/46 56/184/46
f 47/185/47 48/186/47 58/187/47 57/188/47
f 48/189/48 49/190/48 59/191/48 58/192/48
f 49/193/49 50/194/49 60/195/49 59/196/49
f 50/197/50 42/198/50 52/199/50 60/200/50
f 52/201/51 51/202/51 61/203/51 62/204/51
f 51/205/52 53/206/52 63/207/52 61/208/52
f 53/209/53 54/210/53 64/211/53 63/212/53
f 54/213/54 55/214/54 65/215/54 64/216/54
f 55/217/55 56/218/55 66/219/55 65/220/55
f 56/221/56 57/222/56 67/223/56 66/224/56
f 57/225/57 58/226/57 68/227/57 67/228/57
f 58/229/58 59/230/58 69/231/58 68/232/58
f 59/233/59 60/234/59 70/235/59 69/236/59
f 60/237/60 52/238/60 62/239/60 70/240/60
f 62/241/61 61/242/61 71/243/61 72/244/61
f 61/245/62 63/246/62 73/247/62 71/248/62
f 63/249/63 64/250/63 74/251/63 73/252/63
f 64/253/64 65/254/64 75/255/64 74/256/64
f 65/257/65 66/258/65 76/259/65 75/260/65
f 66/261/66 67/262/66 77/263/66 76/264/66
f 67/265/67 68/266/67 78/267/67 77/268/67
f 68/269/68 69/270/68 79/271/68 78/272/68
f 69/273/69 70/274/69 80/275/69 79/276/69
f 70/277/70 62/278/70 72/279/70 80/280/70
f 72/281/71 71/282/71 2/283/71 1/284/71
f 71/285/72 73/286/72 5/287/72 2/288/72
f 73/289/73 74/290/73 7/291/73 5/292/73
f 74/293/74 75/294/74 9/295/74 7/296/74
f 75/297/75 76/298/75 11/299/75 9/300/75
f 76/301/76 77/302/76 13/303/76 11/304/76
f 77/305/77 78/306/77 15/307/77 13/308/77
f 78/309/78 79/310/78 17/311/78 15/312/78
f 79/313/79 80/314/79 19/315/79 17/316/79
f 80/317/80 72/318/80 1/319/80 19/320/80
o blade.1.1
v -0.49348499999999995 -0.9354268750000001 1
v -0.49348499999999995 -0.9354268750000001 0
v -0.9354268750000001 -0.49348499999999995 0
v -0.9354268750000001 -0.49348499999999995 1
v -0.9796206249999999 -0.6260675 0
v -0.9796206249999999 -0.6260675 1
v -0.6260675 -0.9796206249999999 0
v -0.6260675 -0.9796206249999999 1
vt 0.6953125 0.6171875
vt 0.8203125 0.6171875
vt 0.8203125 0.6953125
vt 0.6953125 0.6953125
vt 0.1875 0.96875
vt 0.0625 0.96875
vt 0.0625 0.953125
vt 0.1875 0.953125
vt 0.203125 0.703125
vt 0.078125 0.703125
vt 0.078125 0.640625
vt 0.203125 0.640625
vt 0.078125 0.96875
vt 0.203125 0.96875
vt 0.203125 0.984375
vt 0.078125 0.984375
vt 0.203125390625 0.9921875
vt 0.2109378125 0.9765625
vt 0.2734371875 0.9765625
vt 0.281249609375 0.9921875
vt 0.03125 0.867188203125
vt 0.046875 0.85937578125
vt 0.046875 0.9375
vt 0.03125 0.929687578125
vn 0.7071067811865476 0.7071067811865476 0
vn -0.9486841924748987 0.31622508273103433 0
vn -0.7071067811865476 -0.7071067811865476 0
vn 0.31622508273103433 -0.9486841924748987 0
vn 0 0 -1
vn 0 0 1
usemtl m_f159d19e-6b5d-ea08-5d34-afa6116c9667
f 81/321/81 82/322/81 83/323/81 84/324/81
f 84/325/82 83/326/82 85/327/82 86/328/82
f 86/329/83 85/330/83 87/331/83 88/332/83
f 88/333/84 87/334/84 82/335/84 81/336/84
f 82/337/85 87/338/85 85/339/85 83/340/85
f 88/341/86 81/342/86 84/343/86 86/344/86
o blade.1.4
v -0.9354268750000001 1.493485 1
v -0.9354268750000001 1.493485 0
v -0.49348499999999995 1.935426875 0
v -0.49348499999999995 1.935426875 1
v -0.6260675 1.979620625 0
v -0.6260675 1.979620625 1
v -0.9796206249999999 1.6260675 0
v -0.9796206249999999 1.6260675 1
vt 0.375 0.2265625
vt 0.5 0.2265625
vt 0.5 0.3046875
vt 0.375 0.3046875
vt 0.203125 0.6875
vt 0.328125 0.6875
vt 0.328125 0.703125
vt 0.203125 0.703125
vt 0.5078125 0.75
vt 0.3828125 0.75
vt 0.3828125 0.6875
vt 0.5078125 0.6875
vt 0.3125 0.96875
vt 0.1875 0.96875
vt 0.1875 0.953125
vt 0.3125 0.953125
vt 0.015625 0.84375078125
vt 0.03125 0.851563203125
vt 0.03125 0.914062578125
vt 0.015625 0.921875
vt 0.2578128125 0.828125
vt 0.250000390625 0.8125
vt 0.328124609375 0.8125
vt 0.3203121875 0.828125
vn 0.7071067811865476 -0.7071067811865476 0
vn 0.31622508273103433 0.9486841924748987 0
vn -0.7071067811865476 0.7071067811865476 0
vn -0.9486841924748987 -0.31622508273103433 0
vn 0 0 -1
vn 0 0 1
usemtl m_f159d19e-6b5d-ea08-5d34-afa6116c9667
f 89/345/87 90/346/87 91/347/87 92/348/87
f 92/349/88 91/350/88 93/351/88 94/352/88
f 94/353/89 93/354/89 95/355/89 96/356/89
f 96/357/90 95/358/90 90/359/90 89/360/90
f 90/361/91 95/362/91 93/363/91 91/364/91
f 96/365/92 89/366/92 92/367/92 94/368/92
o blade.1.3
v 1.493485 1.935426875 1
v 1.493485 1.935426875 0
v 1.935426875 1.493485 0
v 1.935426875 1.493485 1
v 1.979620625 1.6260675 0
v 1.979620625 1.6260675 1
v 1.6260675 1.979620625 0
v 1.6260675 1.979620625 1
vt 0.8203125 0.6171875
vt 0.6953125 0.6171875
vt 0.6953125 0.5390625
vt 0.8203125 0.5390625
vt 0.203125 0.671875
vt 0.328125 0.671875
vt 0.328125 0.6875
vt 0.203125 0.6875
vt 0.5 0.2421875
vt 0.625 0.2421875
vt 0.625 0.3046875
vt 0.5 0.3046875
vt 0.453125 0.40625
vt 0.328125 0.40625
vt 0.328125 0.390625
vt 0.453125 0.390625
vt 0.328124609375 0.796875
vt 0.3203121875 0.8125
vt 0.2578128125 0.8125
vt 0.250000390625 0.796875
vt 0.265625 0.789062578125
vt 0.25 0.796875
vt 0.25 0.71875078125
vt 0.265625 0.726563203125
vn -0.7071067811865476 -0.7071067811865476 0
vn 0.9486841924748987 -0.31622508273103433 0
vn 0.7071067811865476 0.7071067811865476 0
vn -0.31622508273103433 0.9486841924748987 0
vn 0 0 -1
vn 0 0 1
usemtl m_f159d19e-6b5d-ea08-5d34-afa6116c9667
f 97/369/93 98/370/93 99/371/93 100/372/93
f 100/373/94 99/374/94 101/375/94 102/376/94
f 102/377/95 101/378/95 103/379/95 104/380/95
f 104/381/96 103/382/96 98/383/96 97/384/96
f 98/385/97 103/386/97 101/387/97 99/388/97
f 104/389/98 97/390/98 100/391/98 102/392/98
o blade.1.2
v 1.935426875 -0.49348499999999995 1
v 1.935426875 -0.49348499999999995 0
v 1.493485 -0.9354268750000001 0
v 1.493485 -0.9354268750000001 1
v 1.6260675 -0.9796206249999999 0
v 1.6260675 -0.9796206249999999 1
v 1.979620625 -0.6260675 0
v 1.979620625 -0.6260675 1
vt 0.8203125 0.5390625
vt 0.6953125 0.5390625
vt 0.6953125 0.4609375
vt 0.8203125 0.4609375
vt 0.484375 0.375
vt 0.359375 0.375
vt 0.359375 0.359375
vt 0.484375 0.359375
vt 0.6953125 0.3984375
vt 0.8203125 0.3984375
vt 0.8203125 0.4609375
vt 0.6953125 0.4609375
vt 0.34375 0.375
vt 0.46875 0.375
vt 0.46875 0.390625
vt 0.34375 0.390625
vt 0.28125 0.796875
vt 0.265625 0.789062578125
vt 0.265625 0.726563203125
vt 0.28125 0.71875078125
vt 0.3515621875 0.9140625
vt 0.359374609375 0.9296875
vt 0.281250390625 0.9296875
vt 0.2890628125 0.9140625
vn -0.7071067811865476 0.7071067811865476 0
vn -0.31622508273103433 -0.9486841924748987 0
vn 0.7071067811865476 -0.7071067811865476 0
vn 0.9486841924748987 0.31622508273103433 0
vn 0 0 -1
vn 0 0 1
usemtl m_f159d19e-6b5d-ea08-5d34-afa6116c9667
f 105/393/99 106/394/99 107/395/99 108/396/99
f 108/397/100 107/398/100 109/399/100 110/400/100
f 110/401/101 109/402/101 111/403/101 112/404/101
f 112/405/102 111/406/102 106/407/102 105/408/102
f 106/409/103 111/410/103 109/411/103 107/412/103
f 112/413/104 105/414/104 108/415/104 110/416/104
o blade.8
v 0.5828156250000001 0.9 0.802943125
v 0.358835625 0.9 0.219455
v 0.417184375 0.9 0.19705687500000002
v 0.641164375 0.9 0.780545
v 0.417184375 1.75895875 0.19705687500000002
v 0.641164375 1.936610625 0.780545
v 0.358835625 1.75895875 0.219455
v 0.5828156250000001 1.936610625 0.802943125
vt 0.21875 0.71875
vt 0.0625 0.71875
vt 0.0625 0.703125
vt 0.21875 0.703125
vt 0 0.734375
vt 0.15625 0.734375
vt 0.15625 0.9555859375
vt 0 1
vt 0.234375 0.71875
vt 0.234375 0.5625
vt 0.25 0.5625
vt 0.25 0.71875
vt 0.328125 1
vt 0.171875 0.9555859375
vt 0.171875 0.734375
vt 0.328125 0.734375
vt 0.046875 0.5
vt 0.046875 0.71875
vt 0.03125 0.71875
vt 0.03125 0.5
vt 0 0.71875
vt 0 0.453125
vt 0.015625 0.453125
vt 0.015625 0.71875
vn 0 -1 0
vn 0.9335804832703474 0 -0.3583678016461645
vn -0.09798273935126979 0.9618969302707514 -0.25525218573976266
vn -0.9335804832703474 0 0.3583678016461645
vn -0.35836987935480025 0 -0.9335796857104518
vn 0.3583698793548003 0 0.9335796857104519
usemtl m_63c3b421-12ae-8de9-fea5-cab982430cd8
f 113/417/105 114/418/105 115/419/105 116/420/105
f 116/421/106 115/422/106 117/423/106 118/424/106
f 118/425/107 117/426/107 119/427/107 120/428/107
f 120/429/108 119/430/108 114/431/108 113/432/108
f 114/433/109 119/434/109 117/435/109 115/436/109
f 120/437/110 113/438/110 116/439/110 118/440/110
o blade.8
v 0.8414022025003212 0.7242832224489169 0.802943125
v 0.6830244256501583 0.8826609992990797 0.219455
v 0.7242832224489169 0.8414022025003212 0.19705687500000002
v 0.8826609992990798 0.6830244256501583 0.780545
v 1.3316587793334373 1.4487777593848414 0.19705687500000002
v 1.6156554016866052 1.4160188280376833 0.780545
v 1.2903999825346788 1.4900365561836 0.219455
v 1.5743966048878466 1.457277624836442 0.802943125
vt 0.21875 0.71875
vt 0.0625 0.71875
vt 0.0625 0.703125
vt 0.21875 0.703125
vt 0 0.734375
vt 0.15625 0.734375
vt 0.15625 0.9555859375
vt 0 1
vt 0.234375 0.71875
vt 0.234375 0.5625
vt 0.25 0.5625
vt 0.25 0.71875
vt 0.328125 1
vt 0.171875 0.9555859375
vt 0.171875 0.734375
vt 0.328125 0.734375
vt 0.046875 0.5
vt 0.046875 0.71875
vt 0.03125 0.71875
vt 0.03125 0.5
vt 0 0.71875
vt 0 0.453125
vt 0.015625 0.453125
vt 0.015625 0.71875
vn -0.7071067811865476 -0.7071067811865475 0
vn 0.6601410905038768 -0.6601410905038769 -0.35836780164616455
vn 0.6108795827624552 0.7494481016314889 -0.2552521857397627
vn -0.6601410905038768 0.6601410905038769 0.35836780164616455
vn -0.25340577186478414 0.2534057718647842 -0.9335796857104518
vn 0.2534057718647842 -0.25340577186478425 0.9335796857104519
usemtl m_63c3b421-12ae-8de9-fea5-cab982430cd8
f 121/441/111 122/442/111 123/443/111 124/444/111
f 124/445/112 123/446/112 125/447/112 126/448/112
f 126/449/113 125/450/113 127/451/113 128/452/113
f 128/453/114 127/454/114 122/455/114 121/456/114
f 122/457/115 127/458/115 125/459/115 123/460/115
f 128/461/116 121/462/116 124/463/116 126/464/116
o blade.8
v 0.27571677755108315 0.8414022025003212 0.802943125
v 0.11733900070092018 0.6830244256501583 0.219455
v 0.15859779749967878 0.7242832224489169 0.19705687500000002
v 0.3169755743498417 0.8826609992990797 0.780545
v -0.44877775938484155 1.3316587793334371 0.19705687500000002
v -0.41601882803768364 1.615655401686605 0.780545
v -0.4900365561836001 1.2903999825346786 0.219455
v -0.4572776248364422 1.5743966048878464 0.802943125
vt 0.21875 0.71875
vt 0.0625 0.71875
vt 0.0625 0.703125
vt 0.21875 0.703125
vt 0 0.734375
vt 0.15625 0.734375
vt 0.15625 0.9555859375
vt 0 1
vt 0.234375 0.71875
vt 0.234375 0.5625
vt 0.25 0.5625
vt 0.25 0.71875
vt 0.328125 1
vt 0.171875 0.9555859375
vt 0.171875 0.734375
vt 0.328125 0.734375
vt 0.046875 0.5
vt 0.046875 0.71875
vt 0.03125 0.71875
vt 0.03125 0.5
vt 0 0.71875
vt 0 0.453125
vt 0.015625 0.453125
vt 0.015625 0.71875
vn 0.7071067811865476 -0.7071067811865475 0
vn 0.6601410905038768 0.6601410905038769 -0.35836780164616455
vn -0.7494481016314889 0.610879582762455 -0.25525218573976266
vn -0.6601410905038768 -0.6601410905038769 0.35836780164616455
vn -0.25340577186478414 -0.2534057718647842 -0.9335796857104518
vn 0.2534057718647842 0.25340577186478425 0.9335796857104519
usemtl m_63c3b421-12ae-8de9-fea5-cab982430cd8
f 129/465/117 130/466/117 131/467/117 132/468/117
f 132/469/118 131/470/118 133/471/118 134/472/118
f 134/473/119 133/474/119 135/475/119 136/476/119
f 136/477/120 135/478/120 130/479/120 129/480/120
f 130/481/121 135/482/121 133/483/121 131/484/121
f 136/485/122 129/486/122 132/487/122 134/488/122
o blade.8
v 0.09999999999999998 0.5828156250000001 0.802943125
v 0.09999999999999992 0.3588356250000001 0.219455
v 0.09999999999999998 0.41718437500000005 0.19705687500000002
v 0.10000000000000003 0.6411643750000001 0.780545
v -0.7589587499999999 0.4171843750000003 0.19705687500000002
v -0.9366106249999999 0.6411643750000003 0.780545
v -0.7589587499999999 0.35883562500000027 0.219455
v -0.9366106249999999 0.5828156250000003 0.802943125
vt 0.21875 0.71875
vt 0.0625 0.71875
vt 0.0625 0.703125
vt 0.21875 0.703125
vt 0 0.734375
vt 0.15625 0.734375
vt 0.15625 0.9555859375
vt 0 1
vt 0.234375 0.71875
vt 0.234375 0.5625
vt 0.25 0.5625
vt 0.25 0.71875
vt 0.328125 1
vt 0.171875 0.9555859375
vt 0.171875 0.734375
vt 0.328125 0.734375
vt 0.046875 0.5
vt 0.046875 0.71875
vt 0.03125 0.71875
vt 0.03125 0.5
vt 0 0.71875
vt 0 0.453125
vt 0.015625 0.453125
vt 0.015625 0.71875
vn 1 -2.220446049250313e-16 0
vn 2.0729650957348408e-16 0.9335804832703474 -0.3583678016461645
vn -0.9618969302707514 -0.09798273935126958 -0.25525218573976266
vn -2.0729650957348408e-16 -0.9335804832703474 0.3583678016461645
vn -7.957409827836775e-17 -0.35836987935480025 -0.9335796857104518
vn 7.957409827836777e-17 0.3583698793548003 0.9335796857104519
usemtl m_63c3b421-12ae-8de9-fea5-cab982430cd8
f 137/489/123 138/490/123 139/491/123 140/492/123
f 140/493/124 139/494/124 141/495/124 142/496/124
f 142/497/125 141/498/125 143/499/125 144/500/125
f 144/501/126 143/502/126 138/503/126 137/504/126
f 138/505/127 143/506/127 141/507/127 139/508/127
f 144/509/128 137/510/128 140/511/128 142/512/128
o blade.8
v 0.41718437500000005 0.09999999999999998 0.802943125
v 0.641164375 0.09999999999999998 0.219455
v 0.5828156250000001 0.09999999999999998 0.19705687500000002
v 0.35883562500000005 0.09999999999999998 0.780545
v 0.5828156250000002 -0.7589587499999999 0.19705687500000002
v 0.35883562500000016 -0.9366106249999999 0.780545
v 0.6411643750000002 -0.7589587499999999 0.219455
v 0.41718437500000016 -0.9366106249999999 0.802943125
vt 0.21875 0.71875
vt 0.0625 0.71875
vt 0.0625 0.703125
vt 0.21875 0.703125
vt 0 0.734375
vt 0.15625 0.734375
vt 0.15625 0.9555859375
vt 0 1
vt 0.234375 0.71875
vt 0.234375 0.5625
vt 0.25 0.5625
vt 0.25 0.71875
vt 0.328125 1
vt 0.171875 0.9555859375
vt 0.171875 0.734375
vt 0.328125 0.734375
vt 0.046875 0.5
vt 0.046875 0.71875
vt 0.03125 0.71875
vt 0.03125 0.5
vt 0 0.71875
vt 0 0.453125
vt 0.015625 0.453125
vt 0.015625 0.71875
vn -1.2246467991473532e-16 1 0
vn -0.9335804832703474 -1.14330635058347e-16 -0.3583678016461645
vn 0.0979827393512699 -0.9618969302707514 -0.25525218573976266
vn 0.9335804832703474 1.14330635058347e-16 0.3583678016461645
vn 0.35836987935480025 4.388765256626793e-17 -0.9335796857104518
vn -0.3583698793548003 -4.388765256626794e-17 0.9335796857104519
usemtl m_63c3b421-12ae-8de9-fea5-cab982430cd8
f 145/513/129 146/514/129 147/515/129 148/516/129
f 148/517/130 147/518/130 149/519/130 150/520/130
f 150/521/131 149/522/131 151/523/131 152/524/131
f 152/525/132 151/526/132 146/527/132 145/528/132
f 146/529/133 151/530/133 149/531/133 147/532/133
f 152/533/134 145/534/134 148/535/134 150/536/134
o blade.8
v 0.9 0.41718437500000005 0.802943125
v 0.8999999999999999 0.6411643750000001 0.219455
v 0.9 0.5828156250000001 0.19705687500000002
v 0.9000000000000001 0.3588356250000001 0.780545
v 1.75895875 0.5828156250000003 0.19705687500000002
v 1.936610625 0.3588356250000003 0.780545
v 1.75895875 0.6411643750000002 0.219455
v 1.936610625 0.41718437500000033 0.802943125
vt 0.21875 0.71875
vt 0.0625 0.71875
vt 0.0625 0.703125
vt 0.21875 0.703125
vt 0 0.734375
vt 0.15625 0.734375
vt 0.15625 0.9555859375
vt 0 1
vt 0.234375 0.71875
vt 0.234375 0.5625
vt 0.25 0.5625
vt 0.25 0.71875
vt 0.328125 1
vt 0.171875 0.9555859375
vt 0.171875 0.734375
vt 0.328125 0.734375
vt 0.046875 0.5
vt 0.046875 0.71875
vt 0.03125 0.71875
vt 0.03125 0.5
vt 0 0.71875
vt 0 0.453125
vt 0.015625 0.453125
vt 0.015625 0.71875
vn -1 -2.220446049250313e-16 0
vn 2.0729650957348408e-16 -0.9335804832703474 -0.3583678016461645
vn 0.9618969302707514 0.09798273935127 -0.25525218573976266
vn -2.0729650957348408e-16 0.9335804832703474 0.3583678016461645
vn -7.957409827836775e-17 0.35836987935480025 -0.9335796857104518
vn 7.957409827836777e-17 -0.3583698793548003 0.9335796857104519
usemtl m_63c3b421-12ae-8de9-fea5-cab982430cd8
f 153/537/135 154/538/135 155/539/135 156/540/135
f 156/541/136 155/542/136 157/543/136 158/544/136
f 158/545/137 157/546/137 159/547/137 160/548/137
f 160/549/138 159/550/138 154/551/138 153/552/138
f 154/553/139 159/554/139 157/555/139 155/556/139
f 160/557/140 153/558/140 156/559/140 158/560/140
o blade.8
v 0.15859779749967878 0.27571677755108315 0.802943125
v 0.3169755743498417 0.11733900070092024 0.219455
v 0.27571677755108315 0.15859779749967878 0.19705687500000002
v 0.11733900070092018 0.31697557434984175 0.780545
v -0.33165877933343735 -0.44877775938484143 0.19705687500000002
v -0.6156554016866052 -0.4160188280376833 0.780545
v -0.2903999825346788 -0.4900365561836001 0.219455
v -0.5743966048878466 -0.45727762483644196 0.802943125
vt 0.21875 0.71875
vt 0.0625 0.71875
vt 0.0625 0.703125
vt 0.21875 0.703125
vt 0 0.734375
vt 0.15625 0.734375
vt 0.15625 0.9555859375
vt 0 1
vt 0.234375 0.71875
vt 0.234375 0.5625
vt 0.25 0.5625
vt 0.25 0.71875
vt 0.328125 1
vt 0.171875 0.9555859375
vt 0.171875 0.734375
vt 0.328125 0.734375
vt 0.046875 0.5
vt 0.046875 0.71875
vt 0.03125 0.71875
vt 0.03125 0.5
vt 0 0.71875
vt 0 0.453125
vt 0.015625 0.453125
vt 0.015625 0.71875
vn 0.7071067811865477 0.7071067811865475 0
vn -0.6601410905038767 0.6601410905038769 -0.3583678016461645
vn -0.6108795827624552 -0.7494481016314888 -0.25525218573976266
vn 0.6601410905038767 -0.6601410905038769 0.3583678016461645
vn 0.25340577186478414 -0.25340577186478425 -0.9335796857104518
vn -0.2534057718647842 0.2534057718647843 0.9335796857104519
usemtl m_63c3b421-12ae-8de9-fea5-cab982430cd8
f 161/561/141 162/562/141 163/563/141 164/564/141
f 164/565/142 163/566/142 165/567/142 166/568/142
f 166/569/143 165/570/143 167/571/143 168/572/143
f 168/573/144 167/574/144 162/575/144 161/576/144
f 162/577/145 167/578/145 165/579/145 163/580/145
f 168/581/146 161/582/146 164/583/146 166/584/146
o blade.8
v 0.7242832224489169 0.15859779749967878 0.802943125
v 0.8826609992990798 0.31697557434984175 0.219455
v 0.8414022025003212 0.27571677755108315 0.19705687500000002
v 0.6830244256501583 0.11733900070092024 0.780545
v 1.4487777593848417 -0.3316587793334371 0.19705687500000002
v 1.4160188280376835 -0.6156554016866049 0.780545
v 1.4900365561836002 -0.29039998253467847 0.219455
v 1.457277624836442 -0.5743966048878464 0.802943125
vt 0.21875 0.71875
vt 0.0625 0.71875
vt 0.0625 0.703125
vt 0.21875 0.703125
vt 0 0.734375
vt 0.15625 0.734375
vt 0.15625 0.9555859375
vt 0 1
vt 0.234375 0.71875
vt 0.234375 0.5625
vt 0.25 0.5625
vt 0.25 0.71875
vt 0.328125 1
vt 0.171875 0.9555859375
vt 0.171875 0.734375
vt 0.328125 0.734375
vt 0.046875 0.5
vt 0.046875 0.71875
vt 0.03125 0.71875
vt 0.03125 0.5
vt 0 0.71875
vt 0 0.453125
vt 0.015625 0.453125
vt 0.015625 0.71875
vn -0.7071067811865477 0.7071067811865475 0
vn -0.6601410905038767 -0.6601410905038769 -0.3583678016461645
vn 0.749448101631489 -0.610879582762455 -0.25525218573976266
vn 0.6601410905038767 0.6601410905038769 0.3583678016461645
vn 0.25340577186478414 0.25340577186478425 -0.9335796857104518
vn -0.2534057718647842 -0.2534057718647843 0.9335796857104519
usemtl m_63c3b421-12ae-8de9-fea5-cab982430cd8
f 169/585/147 170/586/147 171/587/147 172/588/147
f 172/589/148 171/590/148 173/591/148 174/592/148
f 174/593/149 173/594/149 175/595/149 176/596/149
f 176/597/150 175/598/150 170/599/150 169/600/150
f 170/601/151 175/602/151 173/603/151 171/604/151
f 176/605/152 169/606/152 172/607/152 174/608/152
o Cylinder.1
v 0.5 0.5 0.125
v 0.9041975 0.66742375 0.125
v 0.9041975 0.33257625 0.125
v 0.9041975 0.66742375 0.875
v 0.9041975 0.33257625 0.875
v 0.5 0.5 0.875
v 0.66742375 0.09580250000000001 0.125
v 0.66742375 0.09580250000000001 0.875
v 0.33257625 0.09580250000000001 0.125
v 0.33257625 0.09580250000000001 0.875
v 0.09580250000000001 0.33257625 0.125
v 0.09580250000000001 0.33257625 0.875
v 0.09580250000000001 0.66742375 0.125
v 0.09580250000000001 0.66742375 0.875
v 0.33257625 0.9041975 0.125
v 0.33257625 0.9041975 0.875
v 0.66742375 0.9041975 0.125
v 0.66742375 0.9041975 0.875
vt 0.1015625 0.89895
vt 0.0005125 0.94080625
vt 0.0005125 0.85709375
vt 0.5625 0.53125
vt 0.375 0.53125
vt 0.375 0.453125
vt 0.5625 0.453125
vt 0.3588625 0.7689312500000001
vt 0.2578125 0.727075
vt 0.3588625 0.68521875
vt 0.1015625 0.89895
vt 0.0005125 0.85709375
vt 0.05970625 0.7979
vt 0.734375 0.6875
vt 0.546875 0.6875
vt 0.546875 0.609375
vt 0.734375 0.609375
vt 0.3588625 0.68521875
vt 0.2578125 0.727075
vt 0.29966875 0.626025
vt 0.1015625 0.89895
vt 0.05970625 0.7979
vt 0.14341875 0.7979
vt 0.5625 0.6875
vt 0.5625 0.875
vt 0.484375 0.875
vt 0.484375 0.6875
vt 0.29966875 0.626025
vt 0.2578125 0.727075
vt 0.21595625 0.626025
vt 0.1015625 0.89895
vt 0.14341875 0.7979
vt 0.2026125 0.85709375
vt 0.546875 0.53125
vt 0.734375 0.53125
vt 0.734375 0.609375
vt 0.546875 0.609375
vt 0.21595625 0.626025
vt 0.2578125 0.727075
vt 0.1567625 0.68521875
vt 0.1015625 0.89895
vt 0.2026125 0.85709375
vt 0.2026125 0.94080625
vt 0 0.390625
vt 0.1875 0.390625
vt 0.1875 0.46875
vt 0 0.46875
vt 0.1567625 0.68521875
vt 0.2578125 0.727075
vt 0.1567625 0.7689312500000001
vt 0.1015625 0.89895
vt 0.2026125 0.94080625
vt 0.14341875 1
vt 0.453125 0.375
vt 0.640625 0.375
vt 0.640625 0.453125
vt 0.453125 0.453125
vt 0.1567625 0.7689312500000001
vt 0.2578125 0.727075
vt 0.21595625 0.828125
vt 0.1015625 0.89895
vt 0.14341875 1
vt 0.05970625 1
vt 0.375 0.453125
vt 0.375 0.265625
vt 0.453125 0.265625
vt 0.453125 0.453125
vt 0.21595625 0.828125
vt 0.2578125 0.727075
vt 0.29966875 0.828125
vt 0.1015625 0.89895
vt 0.05970625 1
vt 0.0005125 0.94080625
vt 0.75 0.875
vt 0.5625 0.875
vt 0.5625 0.796875
vt 0.75 0.796875
vt 0.29966875 0.828125
vt 0.2578125 0.727075
vt 0.3588625 0.7689312500000001
vn 0 0 -1
vn 1 0 0
vn 0 0 1
vn 0 0 -1
vn 0.7071067811865476 -0.7071067811865476 0
vn 0 0 1
vn 0 0 -1
vn 0 -1 0
vn 0 0 1
vn 0 0 -1
vn -0.7071067811865476 -0.7071067811865476 0
vn 0 0 1
vn 0 0 -1
vn -1 0 0
vn 0 0 1
vn 0 0 -1
vn -0.7071067811865476 0.7071067811865476 0
vn 0 0 1
vn 0 0 -1
vn 0 1 0
vn 0 0 1
vn 0 0 -1
vn 0.7071067811865476 0.7071067811865476 0
vn 0 0 1
usemtl m_038f1410-e515-a64f-f99e-d463bfc506a0
f 177/608/153 178/609/153 179/610/153 177/608/153
f 178/612/154 180/613/154 181/614/154 179/615/154
f 180/615/155 182/616/155 181/617/155 180/615/155
f 177/618/156 179/619/156 183/620/156 177/618/156
f 179/622/157 181/623/157 184/624/157 183/625/157
f 181/625/158 182/626/158 184/627/158 181/625/158
f 177/628/159 183/629/159 185/630/159 177/628/159
f 183/632/160 184/633/160 186/634/160 185/635/160
f 184/635/161 182/636/161 186/637/161 184/635/161
f 177/638/162 185/639/162 187/640/162 177/638/162
f 185/642/163 186/643/163 188/644/163 187/645/163
f 186/645/164 182/646/164 188/647/164 186/645/164
f 177/648/165 187/649/165 189/650/165 177/648/165
f 187/652/166 188/653/166 190/654/166 189/655/166
f 188/655/167 182/656/167 190/657/167 188/655/167
f 177/658/168 189/659/168 191/660/168 177/658/168
f 189/662/169 190/663/169 192/664/169 191/665/169
f 190/665/170 182/666/170 192/667/170 190/665/170
f 177/668/171 191/669/171 193/670/171 177/668/171
f 191/672/172 192/673/172 194/674/172 193/675/172
f 192/675/173 182/676/173 194/677/173 192/675/173
f 177/678/174 193/679/174 178/680/174 177/678/174
f 193/682/175 194/683/175 180/684/175 178/685/175
f 194/685/176 182/686/176 180/687/176 194/685/176
o shaft.1
v 0.25 0.25 0.09375
v 0.25 0.75 0.09375
v 0.75 0.75 0.09375
v 0.75 0.25 0.09375
v 0.75 0.75 0.90625
v 0.75 0.25 0.90625
v 0.25 0.75 0.90625
v 0.25 0.25 0.90625
vt 0.25 0.5
vt 0.25 0.625
vt 0.125 0.625
vt 0.125 0.5
vt 0.40625 0.875
vt 0.40625 1
vt 0.203125 1
vt 0.203125 0.875
vt 0.125 0.46875
vt 0.125 0.59375
vt 0 0.59375
vt 0 0.46875
vt 0.546875 0.53125
vt 0.546875 0.65625
vt 0.34375 0.65625
vt 0.34375 0.53125
vt 0 0.796875
vt 0 0.59375
vt 0.125 0.59375
vt 0.125 0.796875
vt 0.359375 0.875
vt 0.359375 0.671875
vt 0.484375 0.671875
vt 0.484375 0.875
vn 0 0 -1
vn 1 0 0
vn 0 0 1
vn -1 0 0
vn 0 1 0
vn 0 -1 0
usemtl m_038f1410-e515-a64f-f99e-d463bfc506a0
f 195/689/177 196/690/177 197/691/177 198/692/177
f 198/693/178 197/694/178 199/695/178 200/696/178
f 200/697/179 199/698/179 201/699/179 202/700/179
f 202/701/180 201/702/180 196/703/180 195/704/180
f 196/705/181 201/706/181 199/707/181 197/708/181
f 202/709/182 195/710/182 198/711/182 200/712/182
o shaft
v 0.375 0.375 0
v 0.375 0.625 0
v 0.625 0.625 0
v 0.625 0.375 0
v 0.625 0.625 1
v 0.625 0.375 1
v 0.375 0.625 1
v 0.375 0.375 1
vt 0.25 0.4375
vt 0.25 0.5
vt 0.1875 0.5
vt 0.1875 0.4375
vt 0.65625 0.9375
vt 0.65625 1
vt 0.40625 1
vt 0.40625 0.9375
vt 0.25 0.375
vt 0.25 0.4375
vt 0.1875 0.4375
vt 0.1875 0.375
vt 0.65625 0.875
vt 0.65625 0.9375
vt 0.40625 0.9375
vt 0.40625 0.875
vt 0.25 0.625
vt 0.25 0.375
vt 0.3125 0.375
vt 0.3125 0.625
vt 0.3125 0.53125
vt 0.3125 0.28125
vt 0.375 0.28125
vt 0.375 0.53125
vn 0 0 -1
vn 1 0 0
vn 0 0 1
vn -1 0 0
vn 0 1 0
vn 0 -1 0
usemtl m_038f1410-e515-a64f-f99e-d463bfc506a0
f 203/713/183 204/714/183 205/715/183 206/716/183
f 206/717/184 205/718/184 207/719/184 208/720/184
f 208/721/185 207/722/185 209/723/185 210/724/185
f 210/725/186 209/726/186 204/727/186 203/728/186
f 204/729/187 209/730/187 207/731/187 205/732/187
f 210/733/188 203/734/188 206/735/188 208/736/188