# Made in Blockbench 4.12.6
mtllib rotor.mtl

o shaft
v 0.625 0.625 1
v 0.625 0.625 0
v 0.625 0.375 1
v 0.625 0.375 0
v 0.375 0.625 0
v 0.375 0.625 1
v 0.375 0.375 0
v 0.375 0.375 1
vt 0.84375 0.90625
vt 0.90625 0.90625
vt 0.90625 0.84375
vt 0.84375 0.84375
vt 0.90625 0.25
vt 0.90625 0
vt 0.84375 0
vt 0.84375 0.25
vt 0.90625 0.84375
vt 0.84375 0.84375
vt 0.84375 0.90625
vt 0.90625 0.90625
vt 0.84375 0
vt 0.84375 0.25
vt 0.90625 0.25
vt 0.90625 0
vt 0.90625 0
vt 0.84375 0
vt 0.84375 0.25
vt 0.90625 0.25
vt 0.84375 0.25
vt 0.90625 0.25
vt 0.90625 0
vt 0.84375 0
vn 0 0 -1
vn 1 0 0
vn 0 0 1
vn -1 0 0
vn 0 1 0
vn 0 -1 0
usemtl m_e2a00482-9177-2adc-1760-7d112da4187b
f 4/4/1 7/3/1 5/2/1 2/1/1
f 3/8/2 4/7/2 2/6/2 1/5/2
f 8/12/3 3/11/3 1/10/3 6/9/3
f 7/16/4 8/15/4 6/14/4 5/13/4
f 6/20/5 1/19/5 2/18/5 5/17/5
f 7/24/6 4/23/6 3/22/6 8/21/6
o rim
v 0.75 0.75 0.31875
v 0.75 0.75 0.18125000000000002
v 0.75 0.25 0.31875
v 0.75 0.25 0.18125000000000002
v 0.25 0.75 0.18125000000000002
v 0.25 0.75 0.31875
v 0.25 0.25 0.18125000000000002
v 0.25 0.25 0.31875
vt 0 1
vt 0.125 1
vt 0.125 0.875
vt 0 0.875
vt 0 0.84375
vt 0 0.875
vt 0.125 0.875
vt 0.125 0.84375
vt 0 1
vt 0.125 1
vt 0.125 0.875
vt 0 0.875
vt 0.125 0.875
vt 0.125 0.84375
vt 0 0.84375
vt 0 0.875
vt 0 0.875
vt 0.125 0.875
vt 0.125 0.84375
vt 0 0.84375
vt 0.125 0.84375
vt 0 0.84375
vt 0 0.875
vt 0.125 0.875
vn 0 0 -1
vn 1 0 0
vn 0 0 1
vn -1 0 0
vn 0 1 0
vn 0 -1 0
usemtl m_e2a00482-9177-2adc-1760-7d112da4187b
f 12/28/7 15/27/7 13/26/7 10/25/7
f 11/32/8 12/31/8 10/30/8 9/29/8
f 16/36/9 11/35/9 9/34/9 14/33/9
f 15/40/10 16/39/10 14/38/10 13/37/10
f 14/44/11 9/43/11 10/42/11 13/41/11
f 15/48/12 12/47/12 11/46/12 16/45/12
o blade_1
v -0.5625 0.5698510573691874 0.2519084769861016
v -0.5625 0.4565625839896061 0.30473575970368905
v -0.5625 0.5434374160103936 0.19526424029631095
v -0.5625 0.4301489426308124 0.24809152301389842
v 0.25 0.4565625839896062 0.30473575970368905
v 0.25 0.5698510573691875 0.2519084769861016
v 0.25 0.4301489426308125 0.24809152301389842
v 0.25 0.5434374160103937 0.19526424029631095
vt 0.0625 0.8125
vt 0.875 0.8125
vt 0.875 0.75
vt 0.0625 0.75
vt 0 0.875
vt 0.0625 0.875
vt 0.0625 0.75
vt 0 0.75
vt 0.875 0.875
vt 0.0625 0.875
vt 0.0625 0.8125
vt 0.875 0.8125
vt 0 1
vt 0.125 1
vt 0.125 1
vt 0 1
vt 0.875 0.75
vt 0.0625 0.75
vt 0.0625 0.875
vt 0.875 0.875
vt 0.875 0.875
vt 0.0625 0.875
vt 0.0625 0.75
vt 0.875 0.75
vn 1.1099069304367546e-16 -0.90630778703665 0.4226182617406993
vn -1 -1.224646799147353e-16 -1.848892746611746e-32
vn -1.1099069304367546e-16 0.90630778703665 -0.4226182617406993
vn 1 1.224646799147353e-16 1.848892746611746e-32
vn -5.17558101501966e-17 0.4226182617406995 0.90630778703665
vn 5.17558101501966e-17 -0.4226182617406995 -0.90630778703665
usemtl m_64554d13-de1f-a5db-eee1-69d4575050f6
f 20/52/13 23/51/13 21/50/13 18/49/13
f 19/56/14 20/55/14 18/54/14 17/53/14
f 24/60/15 19/59/15 17/58/15 22/57/15
f 23/64/16 24/63/16 22/62/16 21/61/16
f 22/68/17 17/67/17 18/66/17 21/65/17
f 23/72/18 20/71/18 19/70/18 24/69/18
o blade_A_1
v -0.5625 0.4565625839896061 0.30473575970368905
v -0.5625 0.34327411061002483 0.35756304242127646
v -0.5625 0.4301489426308124 0.24809152301389842
v -0.5625 0.3168604692512311 0.30091880573148583
v 0 0.3432741106100249 0.35756304242127646
v 0 0.45656258398960614 0.30473575970368905
v 0 0.31686046925123124 0.30091880573148583
v 0 0.4301489426308125 0.24809152301389842
vt 0.3125 0.6875
vt 0.875 0.6875
vt 0.875 0.625
vt 0.3125 0.625
vt 0.3125 0.75
vt 0.375 0.75
vt 0.375 0.625
vt 0.3125 0.625
vt 0.875 0.75
vt 0.3125 0.75
vt 0.3125 0.6875
vt 0.875 0.6875
vt 0.8125 0.75
vt 0.875 0.75
vt 0.875 0.625
vt 0.8125 0.625
vt 0.875 0.625
vt 0.3125 0.625
vt 0.3125 0.75
vt 0.875 0.75
vt 0.875 0.75
vt 0.3125 0.75
vt 0.3125 0.625
vt 0.875 0.625
vn 1.1099069304367546e-16 -0.90630778703665 0.4226182617406993
vn -1 -1.224646799147353e-16 -1.848892746611746e-32
vn -1.1099069304367546e-16 0.90630778703665 -0.4226182617406993
vn 1 1.224646799147353e-16 1.848892746611746e-32
vn -5.17558101501966e-17 0.4226182617406995 0.90630778703665
vn 5.17558101501966e-17 -0.4226182617406995 -0.90630778703665
usemtl m_64554d13-de1f-a5db-eee1-69d4575050f6
f 28/76/19 31/75/19 29/74/19 26/73/19
f 27/80/20 28/79/20 26/78/20 25/77/20
f 32/84/21 27/83/21 25/82/21 30/81/21
f 31/88/22 32/87/22 30/86/22 29/85/22
f 30/92/23 25/91/23 26/90/23 29/89/23
f 31/96/24 28/95/24 27/94/24 32/93/24
o blade_2
v -0.3852264628363725 1.0917427901629206 0.2519084769861016
v -0.4418706995261631 0.9936320942602461 0.304735759703689
v -0.39843328351576945 1.0688679057397539 0.19526424029631095
v -0.45507752020556 0.9707572098370794 0.24809152301389836
v 0.2617749410486934 0.5873820942602461 0.30473575970368905
v 0.31841917773848405 0.6854927901629206 0.2519084769861016
v 0.24856812036929654 0.5645072098370794 0.2480915230138984
v 0.30521235705908717 0.6626179057397539 0.19526424029631095
vt 0.0625 0.8125
vt 0.875 0.8125
vt 0.875 0.75
vt 0.0625 0.75
vt 0 0.875
vt 0.0625 0.875
vt 0.0625 0.75
vt 0 0.75
vt 0.875 0.875
vt 0.0625 0.875
vt 0.0625 0.8125
vt 0.875 0.8125
vt 0 1
vt 0.125 1
vt 0.125 1
vt 0 1
vt 0.875 0.75
vt 0.0625 0.75
vt 0.0625 0.875
vt 0.875 0.875
vt 0.875 0.875
vt 0.0625 0.875
vt 0.0625 0.75
vt 0.875 0.75
vn -0.4531538935183249 -0.7848855672213959 0.42261826174069944
vn -0.8660254037844387 0.5 2.7755575615628907e-17
vn 0.4531538935183249 0.7848855672213959 -0.42261826174069944
vn 0.8660254037844387 -0.5 -2.7755575615628907e-17
vn 0.21130913087034972 0.36599815077066694 0.9063077870366502
vn -0.21130913087034972 -0.36599815077066694 -0.9063077870366502
usemtl m_64554d13-de1f-a5db-eee1-69d4575050f6
f 36/100/25 39/99/25 37/98/25 34/97/25
f 35/104/26 36/103/26 34/102/26 33/101/26
f 40/108/27 35/107/27 33/106/27 38/105/27
f 39/112/28 40/111/28 38/110/28 37/109/28
f 38/116/29 33/115/29 34/114/29 37/113/29
f 39/120/30 36/119/30 35/118/30 40/117/30
o blade_3
v 0.02924279016292064 1.4550775202055601 0.2519084769861016
v -0.06886790573975388 1.3984332835157693 0.30473575970368905
v 0.006367905739753876 1.441870699526163 0.19526424029631095
v -0.09174279016292064 1.3852264628363726 0.24809152301389842
v 0.3373820942602461 0.6947876429409128 0.30473575970368905
v 0.4354927901629206 0.7514318796307033 0.2519084769861016
v 0.3145072098370794 0.6815808222615161 0.24809152301389842
v 0.41261790573975393 0.7382250589513066 0.19526424029631095
vt 0.0625 0.8125
vt 0.875 0.8125
vt 0.875 0.75
vt 0.0625 0.75
vt 0 0.875
vt 0.0625 0.875
vt 0.0625 0.75
vt 0 0.75
vt 0.875 0.875
vt 0.0625 0.875
vt 0.0625 0.8125
vt 0.875 0.8125
vt 0 1
vt 0.125 1
vt 0.125 1
vt 0 1
vt 0.875 0.75
vt 0.0625 0.75
vt 0.0625 0.875
vt 0.875 0.875
vt 0.875 0.875
vt 0.0625 0.875
vt 0.0625 0.75
vt 0.875 0.75
vn -0.7848855672213959 -0.4531538935183249 0.4226182617406994
vn -0.4999999999999998 0.8660254037844389 5.551115123125783e-17
vn 0.7848855672213959 0.4531538935183249 -0.4226182617406994
vn 0.4999999999999998 -0.8660254037844389 -5.551115123125783e-17
vn 0.36599815077066694 0.21130913087034975 0.9063077870366502
vn -0.36599815077066694 -0.21130913087034975 -0.9063077870366502
usemtl m_64554d13-de1f-a5db-eee1-69d4575050f6
f 44/124/31 47/123/31 45/122/31 42/121/31
f 43/128/32 44/127/32 42/126/32 41/125/32
f 48/132/33 43/131/33 41/130/33 46/129/33
f 47/136/34 48/135/34 46/134/34 45/133/34
f 46/140/35 41/139/35 42/138/35 45/137/35
f 47/144/36 44/143/36 43/142/36 48/141/36
o blade_4
v 0.5698510573691875 1.5625000000000002 0.25190847698610164
v 0.45656258398960625 1.5625000000000002 0.3047357597036891
v 0.5434374160103937 1.5625000000000002 0.195264240296311
v 0.4301489426308125 1.5625000000000002 0.24809152301389847
v 0.45656258398960625 0.75 0.30473575970368905
v 0.5698510573691875 0.75 0.2519084769861016
v 0.4301489426308125 0.75 0.24809152301389842
v 0.5434374160103937 0.75 0.19526424029631095
vt 0.0625 0.8125
vt 0.875 0.8125
vt 0.875 0.75
vt 0.0625 0.75
vt 0 0.875
vt 0.0625 0.875
vt 0.0625 0.75
vt 0 0.75
vt 0.875 0.875
vt 0.0625 0.875
vt 0.0625 0.8125
vt 0.875 0.8125
vt 0 1
vt 0.125 1
vt 0.125 1
vt 0 1
vt 0.875 0.75
vt 0.0625 0.75
vt 0.0625 0.875
vt 0.875 0.875
vt 0.875 0.875
vt 0.0625 0.875
vt 0.0625 0.75
vt 0.875 0.75
vn -0.9063077870366502 -2.3460026240579267e-17 0.4226182617406995
vn 2.447706708470913e-16 1 1.3086067579129446e-16
vn 0.9063077870366502 2.3460026240579267e-17 -0.4226182617406995
vn -2.447706708470913e-16 -1 -1.3086067579129446e-16
vn 0.42261826174069966 -5.0310188628258074e-17 0.9063077870366499
vn -0.42261826174069966 5.0310188628258074e-17 -0.9063077870366499
usemtl m_64554d13-de1f-a5db-eee1-69d4575050f6
f 52/148/37 55/147/37 53/146/37 50/145/37
f 51/152/38 52/151/38 50/150/38 49/149/38
f 56/156/39 51/155/39 49/154/39 54/153/39
f 55/160/40 56/159/40 54/158/40 53/157/40
f 54/164/41 49/163/41 50/162/41 53/161/41
f 55/168/42 52/167/42 51/166/42 56/165/42
o blade_6
v -0.09174279016292064 -0.3852264628363725 0.2519084769861016
v 0.006367905739753876 -0.4418706995261631 0.30473575970368905
v -0.06886790573975388 -0.39843328351576945 0.19526424029631095
v 0.02924279016292064 -0.45507752020556 0.24809152301389842
v 0.41261790573975393 0.2617749410486934 0.30473575970368905
v 0.3145072098370794 0.318419177738484 0.2519084769861016
v 0.4354927901629206 0.2485681203692966 0.24809152301389842
v 0.3373820942602461 0.30521235705908717 0.19526424029631095
vt 0.0625 0.8125
vt 0.875 0.8125
vt 0.875 0.75
vt 0.0625 0.75
vt 0 0.875
vt 0.0625 0.875
vt 0.0625 0.75
vt 0 0.75
vt 0.875 0.875
vt 0.0625 0.875
vt 0.0625 0.8125
vt 0.875 0.8125
vt 0 1
vt 0.125 1
vt 0.125 1
vt 0 1
vt 0.875 0.75
vt 0.0625 0.75
vt 0.0625 0.875
vt 0.875 0.875
vt 0.875 0.875
vt 0.0625 0.875
vt 0.0625 0.75
vt 0.875 0.75
vn 0.7848855672213959 -0.4531538935183249 0.4226182617406994
vn -0.4999999999999998 -0.8660254037844389 -5.551115123125783e-17
vn -0.7848855672213959 0.4531538935183249 -0.4226182617406994
vn 0.4999999999999998 0.8660254037844389 5.551115123125783e-17
vn -0.36599815077066694 0.21130913087034975 0.9063077870366502
vn 0.36599815077066694 -0.21130913087034975 -0.9063077870366502
usemtl m_64554d13-de1f-a5db-eee1-69d4575050f6
f 60/172/43 63/171/43 61/170/43 58/169/43
f 59/176/44 60/175/44 58/174/44 57/173/44
f 64/180/45 59/179/45 57/178/45 62/177/45
f 63/184/46 64/183/46 62/182/46 61/181/46
f 62/188/47 57/187/47 58/186/47 61/185/47
f 63/192/48 60/191/48 59/190/48 64/189/48
o blade_7
v 0.4301489426308125 -0.5625000000000002 0.2519084769861015
v 0.5434374160103937 -0.5625000000000002 0.304735759703689
v 0.45656258398960625 -0.5625000000000002 0.1952642402963109
v 0.5698510573691875 -0.5625000000000002 0.24809152301389836
v 0.5434374160103937 0.24999999999999994 0.30473575970368905
v 0.4301489426308125 0.24999999999999994 0.2519084769861016
v 0.5698510573691875 0.24999999999999994 0.24809152301389842
v 0.45656258398960625 0.24999999999999994 0.19526424029631095
vt 0.0625 0.8125
vt 0.875 0.8125
vt 0.875 0.75
vt 0.0625 0.75
vt 0 0.875
vt 0.0625 0.875
vt 0.0625 0.75
vt 0 0.75
vt 0.875 0.875
vt 0.0625 0.875
vt 0.0625 0.8125
vt 0.875 0.8125
vt 0 1
vt 0.125 1
vt 0.125 1
vt 0 1
vt 0.875 0.75
vt 0.0625 0.75
vt 0.0625 0.875
vt 0.875 0.875
vt 0.875 0.875
vt 0.0625 0.875
vt 0.0625 0.75
vt 0.875 0.75
vn 0.9063077870366502 -2.3460026240579267e-17 0.4226182617406995
vn 2.447706708470913e-16 -1 -1.3086067579129446e-16
vn -0.9063077870366502 2.3460026240579267e-17 -0.4226182617406995
vn -2.447706708470913e-16 1 1.3086067579129446e-16
vn -0.42261826174069966 -5.0310188628258074e-17 0.9063077870366499
vn 0.42261826174069966 5.0310188628258074e-17 -0.9063077870366499
usemtl m_64554d13-de1f-a5db-eee1-69d4575050f6
f 68/196/49 71/195/49 69/194/49 66/193/49
f 67/200/50 68/199/50 66/198/50 65/197/50
f 72/204/51 67/203/51 65/202/51 70/201/51
f 71/208/52 72/207/52 70/206/52 69/205/52
f 70/212/53 65/211/53 66/210/53 69/209/53
f 71/216/54 68/215/54 67/214/54 72/213/54
o blade_8
v 0.9707572098370795 -0.4550775202055598 0.2519084769861016
v 1.0688679057397539 -0.39843328351576923 0.30473575970368905
v 0.9936320942602462 -0.44187069952616287 0.19526424029631095
v 1.0917427901629209 -0.3852264628363723 0.24809152301389842
v 0.6626179057397539 0.3052123570590872 0.30473575970368905
v 0.5645072098370795 0.2485681203692966 0.2519084769861016
v 0.6854927901629206 0.3184191777384841 0.24809152301389842
v 0.5873820942602461 0.2617749410486935 0.19526424029631095
vt 0.0625 0.8125
vt 0.875 0.8125
vt 0.875 0.75
vt 0.0625 0.75
vt 0 0.875
vt 0.0625 0.875
vt 0.0625 0.75
vt 0 0.75
vt 0.875 0.875
vt 0.0625 0.875
vt 0.0625 0.8125
vt 0.875 0.8125
vt 0 1
vt 0.125 1
vt 0.125 1
vt 0 1
vt 0.875 0.75
vt 0.0625 0.75
vt 0.0625 0.875
vt 0.875 0.875
vt 0.875 0.875
vt 0.0625 0.875
vt 0.0625 0.75
vt 0.875 0.75
vn 0.7848855672213958 0.45315389351832513 0.4226182617406995
vn 0.5000000000000002 -0.8660254037844387 -2.7755575615628914e-17
vn -0.7848855672213958 -0.45315389351832513 -0.4226182617406995
vn -0.5000000000000002 0.8660254037844387 2.7755575615628914e-17
vn -0.36599815077066683 -0.2113091308703498 0.90630778703665
vn 0.36599815077066683 0.2113091308703498 -0.90630778703665
usemtl m_64554d13-de1f-a5db-eee1-69d4575050f6
f 76/220/55 79/219/55 77/218/55 74/217/55
f 75/224/56 76/223/56 74/222/56 73/221/56
f 80/228/57 75/227/57 73/226/57 78/225/57
f 79/232/58 80/231/58 78/230/58 77/229/58
f 78/236/59 73/235/59 74/234/59 77/233/59
f 79/240/60 76/239/60 75/238/60 80/237/60
o blade_9
v 1.3852264628363722 -0.09174279016292064 0.2519084769861016
v 1.441870699526163 0.006367905739753876 0.304735759703689
v 1.3984332835157693 -0.06886790573975388 0.19526424029631095
v 1.4550775202055597 0.02924279016292064 0.24809152301389836
v 0.7382250589513065 0.41261790573975393 0.30473575970368905
v 0.6815808222615158 0.3145072098370794 0.2519084769861016
v 0.7514318796307033 0.4354927901629206 0.2480915230138984
v 0.6947876429409128 0.3373820942602461 0.19526424029631095
vt 0.0625 0.8125
vt 0.875 0.8125
vt 0.875 0.75
vt 0.0625 0.75
vt 0 0.875
vt 0.0625 0.875
vt 0.0625 0.75
vt 0 0.75
vt 0.875 0.875
vt 0.0625 0.875
vt 0.0625 0.8125
vt 0.875 0.8125
vt 0 1
vt 0.125 1
vt 0.125 1
vt 0 1
vt 0.875 0.75
vt 0.0625 0.75
vt 0.0625 0.875
vt 0.875 0.875
vt 0.875 0.875
vt 0.0625 0.875
vt 0.0625 0.75
vt 0.875 0.75
vn 0.45315389351832513 0.7848855672213959 0.42261826174069955
vn 0.8660254037844388 -0.5000000000000001 -2.7755575615628914e-17
vn -0.45315389351832513 -0.7848855672213959 -0.42261826174069955
vn -0.8660254037844388 0.5000000000000001 2.7755575615628914e-17
vn -0.21130913087034972 -0.36599815077066683 0.90630778703665
vn 0.21130913087034972 0.36599815077066683 -0.90630778703665
usemtl m_64554d13-de1f-a5db-eee1-69d4575050f6
f 84/244/61 87/243/61 85/242/61 82/241/61
f 83/248/62 84/247/62 82/246/62 81/245/62
f 88/252/63 83/251/63 81/250/63 86/249/63
f 87/256/64 88/255/64 86/254/64 85/253/64
f 86/260/65 81/259/65 82/258/65 85/257/65
f 87/264/66 84/263/66 83/262/66 88/261/66
o blade_10
v 1.5625 0.4301489426308125 0.2519084769861016
v 1.5625 0.5434374160103937 0.30473575970368905
v 1.5625 0.45656258398960625 0.19526424029631095
v 1.5625 0.5698510573691875 0.24809152301389842
v 0.75 0.5434374160103937 0.30473575970368905
v 0.75 0.4301489426308125 0.2519084769861016
v 0.75 0.5698510573691875 0.24809152301389842
v 0.75 0.45656258398960625 0.19526424029631095
vt 0.0625 0.8125
vt 0.875 0.8125
vt 0.875 0.75
vt 0.0625 0.75
vt 0 0.875
vt 0.0625 0.875
vt 0.0625 0.75
vt 0 0.75
vt 0.875 0.875
vt 0.0625 0.875
vt 0.0625 0.8125
vt 0.875 0.8125
vt 0 1
vt 0.125 1
vt 0.125 1
vt 0 1
vt 0.875 0.75
vt 0.0625 0.75
vt 0.0625 0.875
vt 0.875 0.875
vt 0.875 0.875
vt 0.0625 0.875
vt 0.0625 0.75
vt 0.875 0.75
vn 0 0.90630778703665 0.4226182617406995
vn 1 0 0
vn 0 -0.90630778703665 -0.4226182617406995
vn -1 0 0
vn 0 -0.4226182617406995 0.90630778703665
vn 0 0.4226182617406995 -0.90630778703665
usemtl m_64554d13-de1f-a5db-eee1-69d4575050f6
f 92/268/67 95/267/67 93/266/67 90/265/67
f 91/272/68 92/271/68 90/270/68 89/269/68
f 96/276/69 91/275/69 89/274/69 94/273/69
f 95/280/70 96/279/70 94/278/70 93/277/70
f 94/284/71 89/283/71 90/282/71 93/281/71
f 95/288/72 92/287/72 91/286/72 96/285/72
o blade_11
v 1.4550775202055597 0.9707572098370794 0.25190847698610164
v 1.3984332835157693 1.0688679057397539 0.30473575970368905
v 1.441870699526163 0.9936320942602461 0.195264240296311
v 1.3852264628363722 1.0917427901629206 0.24809152301389842
v 0.6947876429409128 0.6626179057397539 0.30473575970368905
v 0.7514318796307033 0.5645072098370794 0.2519084769861016
v 0.6815808222615158 0.6854927901629206 0.24809152301389842
v 0.7382250589513065 0.5873820942602461 0.19526424029631098
vt 0.0625 0.8125
vt 0.875 0.8125
vt 0.875 0.75
vt 0.0625 0.75
vt 0 0.875
vt 0.0625 0.875
vt 0.0625 0.75
vt 0 0.75
vt 0.875 0.875
vt 0.0625 0.875
vt 0.0625 0.8125
vt 0.875 0.8125
vt 0 1
vt 0.125 1
vt 0.125 1
vt 0 1
vt 0.875 0.75
vt 0.0625 0.75
vt 0.0625 0.875
vt 0.875 0.875
vt 0.875 0.875
vt 0.0625 0.875
vt 0.0625 0.75
vt 0.875 0.75
vn -0.45315389351832513 0.7848855672213959 0.42261826174069955
vn 0.8660254037844388 0.5000000000000001 2.7755575615628914e-17
vn 0.45315389351832513 -0.7848855672213959 -0.42261826174069955
vn -0.8660254037844388 -0.5000000000000001 -2.7755575615628914e-17
vn 0.21130913087034972 -0.36599815077066683 0.90630778703665
vn -0.21130913087034972 0.36599815077066683 -0.90630778703665
usemtl m_64554d13-de1f-a5db-eee1-69d4575050f6
f 100/292/73 103/291/73 101/290/73 98/289/73
f 99/296/74 100/295/74 98/294/74 97/293/74
f 104/300/75 99/299/75 97/298/75 102/297/75
f 103/304/76 104/303/76 102/302/76 101/301/76
f 102/308/77 97/307/77 98/306/77 101/305/77
f 103/312/78 100/311/78 99/310/78 104/309/78
o blade_12
v 1.0917427901629209 1.3852264628363722 0.2519084769861016
v 0.9936320942602462 1.441870699526163 0.30473575970368905
v 1.0688679057397539 1.3984332835157693 0.19526424029631095
v 0.9707572098370795 1.4550775202055597 0.24809152301389842
v 0.5873820942602461 0.7382250589513065 0.30473575970368905
v 0.6854927901629206 0.6815808222615158 0.2519084769861016
v 0.5645072098370795 0.7514318796307033 0.24809152301389842
v 0.6626179057397539 0.6947876429409128 0.19526424029631095
vt 0.0625 0.8125
vt 0.875 0.8125
vt 0.875 0.75
vt 0.0625 0.75
vt 0 0.875
vt 0.0625 0.875
vt 0.0625 0.75
vt 0 0.75
vt 0.875 0.875
vt 0.0625 0.875
vt 0.0625 0.8125
vt 0.875 0.8125
vt 0 1
vt 0.125 1
vt 0.125 1
vt 0 1
vt 0.875 0.75
vt 0.0625 0.75
vt 0.0625 0.875
vt 0.875 0.875
vt 0.875 0.875
vt 0.0625 0.875
vt 0.0625 0.75
vt 0.875 0.75
vn -0.7848855672213958 0.45315389351832513 0.4226182617406995
vn 0.5000000000000002 0.8660254037844387 2.7755575615628914e-17
vn 0.7848855672213958 -0.45315389351832513 -0.4226182617406995
vn -0.5000000000000002 -0.8660254037844387 -2.7755575615628914e-17
vn 0.36599815077066683 -0.2113091308703498 0.90630778703665
vn -0.36599815077066683 0.2113091308703498 -0.90630778703665
usemtl m_64554d13-de1f-a5db-eee1-69d4575050f6
f 108/316/79 111/315/79 109/314/79 106/313/79
f 107/320/80 108/319/80 106/318/80 105/317/80
f 112/324/81 107/323/81 105/322/81 110/321/81
f 111/328/82 112/327/82 110/326/82 109/325/82
f 110/332/83 105/331/83 106/330/83 109/329/83
f 111/336/84 108/335/84 107/334/84 112/333/84
o blade_5
v -0.45507752020556 0.02924279016292064 0.25190847698610164
v -0.39843328351576945 -0.06886790573975388 0.30473575970368905
v -0.4418706995261631 0.006367905739753876 0.195264240296311
v -0.3852264628363725 -0.09174279016292064 0.24809152301389842
v 0.30521235705908717 0.3373820942602461 0.30473575970368905
v 0.24856812036929654 0.4354927901629206 0.2519084769861016
v 0.31841917773848405 0.3145072098370794 0.24809152301389842
v 0.2617749410486934 0.41261790573975393 0.19526424029631098
vt 0.0625 0.8125
vt 0.875 0.8125
vt 0.875 0.75
vt 0.0625 0.75
vt 0 0.875
vt 0.0625 0.875
vt 0.0625 0.75
vt 0 0.75
vt 0.875 0.875
vt 0.0625 0.875
vt 0.0625 0.8125
vt 0.875 0.8125
vt 0 1
vt 0.125 1
vt 0.125 1
vt 0 1
vt 0.875 0.75
vt 0.0625 0.75
vt 0.0625 0.875
vt 0.875 0.875
vt 0.875 0.875
vt 0.0625 0.875
vt 0.0625 0.75
vt 0.875 0.75
vn 0.4531538935183249 -0.7848855672213959 0.42261826174069944
vn -0.8660254037844387 -0.5 -2.7755575615628907e-17
vn -0.4531538935183249 0.7848855672213959 -0.42261826174069944
vn 0.8660254037844387 0.5 2.7755575615628907e-17
vn -0.21130913087034972 0.36599815077066694 0.9063077870366502
vn 0.21130913087034972 -0.36599815077066694 -0.9063077870366502
usemtl m_64554d13-de1f-a5db-eee1-69d4575050f6
f 116/340/85 119/339/85 117/338/85 114/337/85
f 115/344/86 116/343/86 114/342/86 113/341/86
f 120/348/87 115/347/87 113/346/87 118/345/87
f 119/352/88 120/351/88 118/350/88 117/349/88
f 118/356/89 113/355/89 114/354/89 117/353/89
f 119/360/90 116/359/90 115/358/90 120/357/90
o blade_A_2
v -0.4418706995261631 0.9936320942602461 0.304735759703689
v -0.4985149362159538 0.8955213983575716 0.35756304242127646
v -0.45507752020556 0.9707572098370794 0.24809152301389836
v -0.5117217568953507 0.8726465139344048 0.30091880573148583
v -0.011375646587206911 0.6142713983575716 0.35756304242127646
v 0.04526859010258366 0.7123820942602461 0.30473575970368905
v -0.024582467266603736 0.591396513934405 0.30091880573148583
v 0.03206176942318684 0.6895072098370794 0.2480915230138984
vt 0.3125 0.6875
vt 0.875 0.6875
vt 0.875 0.625
vt 0.3125 0.625
vt 0.3125 0.75
vt 0.375 0.75
vt 0.375 0.625
vt 0.3125 0.625
vt 0.875 0.75
vt 0.3125 0.75
vt 0.3125 0.6875
vt 0.875 0.6875
vt 0.8125 0.75
vt 0.875 0.75
vt 0.875 0.625
vt 0.8125 0.625
vt 0.875 0.625
vt 0.3125 0.625
vt 0.3125 0.75
vt 0.875 0.75
vt 0.875 0.75
vt 0.3125 0.75
vt 0.3125 0.625
vt 0.875 0.625
vn -0.4531538935183249 -0.7848855672213959 0.42261826174069944
vn -0.8660254037844387 0.5 2.7755575615628907e-17
vn 0.4531538935183249 0.7848855672213959 -0.42261826174069944
vn 0.8660254037844387 -0.5 -2.7755575615628907e-17
vn 0.21130913087034972 0.36599815077066694 0.9063077870366502
vn -0.21130913087034972 -0.36599815077066694 -0.9063077870366502
usemtl m_64554d13-de1f-a5db-eee1-69d4575050f6
f 124/364/91 127/363/91 125/362/91 122/361/91
f 123/368/92 124/367/92 122/366/92 121/365/92
f 128/372/93 123/371/93 121/370/93 126/369/93
f 127/376/94 128/375/94 126/374/94 125/373/94
f 126/380/95 121/379/95 122/378/95 125/377/95
f 127/384/96 124/383/96 123/382/96 128/381/96
o blade_A_3
v -0.06886790573975388 1.3984332835157693 0.30473575970368905
v -0.1669786016424284 1.341789046825979 0.35756304242127646
v -0.09174279016292064 1.3852264628363726 0.24809152301389842
v -0.18985348606559516 1.3285822261465818 0.30091880573148583
v 0.11427139835757161 0.8546497571972319 0.35756304242127646
v 0.21238209426024607 0.9112939938870226 0.30473575970368905
v 0.09139651393440495 0.8414429365178351 0.30091880573148583
v 0.18950720983707942 0.8980871732076257 0.24809152301389842
vt 0.3125 0.6875
vt 0.875 0.6875
vt 0.875 0.625
vt 0.3125 0.625
vt 0.3125 0.75
vt 0.375 0.75
vt 0.375 0.625
vt 0.3125 0.625
vt 0.875 0.75
vt 0.3125 0.75
vt 0.3125 0.6875
vt 0.875 0.6875
vt 0.8125 0.75
vt 0.875 0.75
vt 0.875 0.625
vt 0.8125 0.625
vt 0.875 0.625
vt 0.3125 0.625
vt 0.3125 0.75
vt 0.875 0.75
vt 0.875 0.75
vt 0.3125 0.75
vt 0.3125 0.625
vt 0.875 0.625
vn -0.7848855672213959 -0.4531538935183249 0.4226182617406994
vn -0.4999999999999998 0.8660254037844389 5.551115123125783e-17
vn 0.7848855672213959 0.4531538935183249 -0.4226182617406994
vn 0.4999999999999998 -0.8660254037844389 -5.551115123125783e-17
vn 0.36599815077066694 0.21130913087034975 0.9063077870366502
vn -0.36599815077066694 -0.21130913087034975 -0.9063077870366502
usemtl m_64554d13-de1f-a5db-eee1-69d4575050f6
f 132/388/97 135/387/97 133/386/97 130/385/97
f 131/392/98 132/391/98 130/390/98 129/389/98
f 136/396/99 131/395/99 129/394/99 134/393/99
f 135/400/100 136/399/100 134/398/100 133/397/100
f 134/404/101 129/403/101 130/402/101 133/401/101
f 135/408/102 132/407/102 131/406/102 136/405/102
o blade_A_4
v 0.45656258398960625 1.5625000000000002 0.3047357597036891
v 0.343274110610025 1.5625000000000002 0.35756304242127657
v 0.4301489426308125 1.5625000000000002 0.24809152301389847
v 0.31686046925123124 1.5625000000000002 0.30091880573148594
v 0.343274110610025 1 0.35756304242127657
v 0.45656258398960625 1 0.30473575970368905
v 0.31686046925123124 1 0.3009188057314859
v 0.4301489426308125 1 0.24809152301389845
vt 0.3125 0.6875
vt 0.875 0.6875
vt 0.875 0.625
vt 0.3125 0.625
vt 0.3125 0.75
vt 0.375 0.75
vt 0.375 0.625
vt 0.3125 0.625
vt 0.875 0.75
vt 0.3125 0.75
vt 0.3125 0.6875
vt 0.875 0.6875
vt 0.8125 0.75
vt 0.875 0.75
vt 0.875 0.625
vt 0.8125 0.625
vt 0.875 0.625
vt 0.3125 0.625
vt 0.3125 0.75
vt 0.875 0.75
vt 0.875 0.75
vt 0.3125 0.75
vt 0.3125 0.625
vt 0.875 0.625
vn -0.9063077870366502 -2.3460026240579267e-17 0.4226182617406995
vn 2.447706708470913e-16 1 1.3086067579129446e-16
vn 0.9063077870366502 2.3460026240579267e-17 -0.4226182617406995
vn -2.447706708470913e-16 -1 -1.3086067579129446e-16
vn 0.42261826174069966 -5.0310188628258074e-17 0.9063077870366499
vn -0.42261826174069966 5.0310188628258074e-17 -0.9063077870366499
usemtl m_64554d13-de1f-a5db-eee1-69d4575050f6
f 140/412/103 143/411/103 141/410/103 138/409/103
f 139/416/104 140/415/104 138/414/104 137/413/104
f 144/420/105 139/419/105 137/418/105 142/417/105
f 143/424/106 144/423/106 142/422/106 141/421/106
f 142/428/107 137/427/107 138/426/107 141/425/107
f 143/432/108 140/431/108 139/430/108 144/429/108
o blade_A_5
v 0.9936320942602462 1.441870699526163 0.30473575970368905
v 0.8955213983575718 1.4985149362159536 0.35756304242127646
v 0.9707572098370795 1.4550775202055597 0.24809152301389842
v 0.8726465139344051 1.5117217568953505 0.30091880573148583
v 0.6142713983575716 1.0113756465872068 0.35756304242127646
v 0.7123820942602461 0.9547314098974162 0.30473575970368905
v 0.5913965139344051 1.0245824672666037 0.30091880573148583
v 0.6895072098370795 0.967938230576813 0.24809152301389842
vt 0.3125 0.6875
vt 0.875 0.6875
vt 0.875 0.625
vt 0.3125 0.625
vt 0.3125 0.75
vt 0.375 0.75
vt 0.375 0.625
vt 0.3125 0.625
vt 0.875 0.75
vt 0.3125 0.75
vt 0.3125 0.6875
vt 0.875 0.6875
vt 0.8125 0.75
vt 0.875 0.75
vt 0.875 0.625
vt 0.8125 0.625
vt 0.875 0.625
vt 0.3125 0.625
vt 0.3125 0.75
vt 0.875 0.75
vt 0.875 0.75
vt 0.3125 0.75
vt 0.3125 0.625
vt 0.875 0.625
vn -0.7848855672213958 0.45315389351832513 0.4226182617406995
vn 0.5000000000000002 0.8660254037844387 2.7755575615628914e-17
vn 0.7848855672213958 -0.45315389351832513 -0.4226182617406995
vn -0.5000000000000002 -0.8660254037844387 -2.7755575615628914e-17
vn 0.36599815077066683 -0.2113091308703498 0.90630778703665
vn -0.36599815077066683 0.2113091308703498 -0.90630778703665
usemtl m_64554d13-de1f-a5db-eee1-69d4575050f6
f 148/436/109 151/435/109 149/434/109 146/433/109
f 147/440/110 148/439/110 146/438/110 145/437/110
f 152/444/111 147/443/111 145/442/111 150/441/111
f 151/448/112 152/447/112 150/446/112 149/445/112
f 150/452/113 145/451/113 146/450/113 149/449/113
f 151/456/114 148/455/114 147/454/114 152/453/114
o blade_A_6
v 1.3984332835157693 1.0688679057397539 0.30473575970368905
v 1.3417890468259785 1.1669786016424284 0.3575630424212765
v 1.3852264628363722 1.0917427901629206 0.24809152301389842
v 1.3285822261465816 1.1898534860655952 0.3009188057314859
v 0.8546497571972318 0.8857286016424284 0.35756304242127646
v 0.9112939938870224 0.7876179057397539 0.30473575970368905
v 0.841442936517835 0.908603486065595 0.3009188057314859
v 0.8980871732076255 0.8104927901629206 0.24809152301389842
vt 0.3125 0.6875
vt 0.875 0.6875
vt 0.875 0.625
vt 0.3125 0.625
vt 0.3125 0.75
vt 0.375 0.75
vt 0.375 0.625
vt 0.3125 0.625
vt 0.875 0.75
vt 0.3125 0.75
vt 0.3125 0.6875
vt 0.875 0.6875
vt 0.8125 0.75
vt 0.875 0.75
vt 0.875 0.625
vt 0.8125 0.625
vt 0.875 0.625
vt 0.3125 0.625
vt 0.3125 0.75
vt 0.875 0.75
vt 0.875 0.75
vt 0.3125 0.75
vt 0.3125 0.625
vt 0.875 0.625
vn -0.45315389351832513 0.7848855672213959 0.42261826174069955
vn 0.8660254037844388 0.5000000000000001 2.7755575615628914e-17
vn 0.45315389351832513 -0.7848855672213959 -0.42261826174069955
vn -0.8660254037844388 -0.5000000000000001 -2.7755575615628914e-17
vn 0.21130913087034972 -0.36599815077066683 0.90630778703665
vn -0.21130913087034972 0.36599815077066683 -0.90630778703665
usemtl m_64554d13-de1f-a5db-eee1-69d4575050f6
f 156/460/115 159/459/115 157/458/115 154/457/115
f 155/464/116 156/463/116 154/462/116 153/461/116
f 160/468/117 155/467/117 153/466/117 158/465/117
f 159/472/118 160/471/118 158/470/118 157/469/118
f 158/476/119 153/475/119 154/474/119 157/473/119
f 159/480/120 156/479/120 155/478/120 160/477/120
o blade_A_7
v 1.5625 0.5434374160103937 0.30473575970368905
v 1.5625 0.656725889389975 0.35756304242127646
v 1.5625 0.5698510573691875 0.24809152301389842
v 1.5625 0.6831395307487688 0.30091880573148583
v 1 0.656725889389975 0.35756304242127646
v 1 0.5434374160103937 0.30473575970368905
v 1 0.6831395307487688 0.30091880573148583
v 1 0.5698510573691875 0.24809152301389842
vt 0.3125 0.6875
vt 0.875 0.6875
vt 0.875 0.625
vt 0.3125 0.625
vt 0.3125 0.75
vt 0.375 0.75
vt 0.375 0.625
vt 0.3125 0.625
vt 0.875 0.75
vt 0.3125 0.75
vt 0.3125 0.6875
vt 0.875 0.6875
vt 0.8125 0.75
vt 0.875 0.75
vt 0.875 0.625
vt 0.8125 0.625
vt 0.875 0.625
vt 0.3125 0.625
vt 0.3125 0.75
vt 0.875 0.75
vt 0.875 0.75
vt 0.3125 0.75
vt 0.3125 0.625
vt 0.875 0.625
vn 0 0.90630778703665 0.4226182617406995
vn 1 0 0
vn 0 -0.90630778703665 -0.4226182617406995
vn -1 0 0
vn 0 -0.4226182617406995 0.90630778703665
vn 0 0.4226182617406995 -0.90630778703665
usemtl m_64554d13-de1f-a5db-eee1-69d4575050f6
f 164/484/121 167/483/121 165/482/121 162/481/121
f 163/488/122 164/487/122 162/486/122 161/485/122
f 168/492/123 163/491/123 161/490/123 166/489/123
f 167/496/124 168/495/124 166/494/124 165/493/124
f 166/500/125 161/499/125 162/498/125 165/497/125
f 167/504/126 164/503/126 163/502/126 168/501/126
o blade_A_8
v 1.441870699526163 0.006367905739753876 0.304735759703689
v 1.4985149362159536 0.10447860164242834 0.35756304242127646
v 1.4550775202055597 0.02924279016292064 0.24809152301389836
v 1.5117217568953505 0.1273534860655951 0.30091880573148583
v 1.0113756465872068 0.3857286016424284 0.35756304242127646
v 0.9547314098974162 0.28761790573975393 0.30473575970368905
v 1.0245824672666037 0.40860348606559505 0.30091880573148583
v 0.967938230576813 0.3104927901629206 0.2480915230138984
vt 0.3125 0.6875
vt 0.875 0.6875
vt 0.875 0.625
vt 0.3125 0.625
vt 0.3125 0.75
vt 0.375 0.75
vt 0.375 0.625
vt 0.3125 0.625
vt 0.875 0.75
vt 0.3125 0.75
vt 0.3125 0.6875
vt 0.875 0.6875
vt 0.8125 0.75
vt 0.875 0.75
vt 0.875 0.625
vt 0.8125 0.625
vt 0.875 0.625
vt 0.3125 0.625
vt 0.3125 0.75
vt 0.875 0.75
vt 0.875 0.75
vt 0.3125 0.75
vt 0.3125 0.625
vt 0.875 0.625
vn 0.45315389351832513 0.7848855672213959 0.42261826174069955
vn 0.8660254037844388 -0.5000000000000001 -2.7755575615628914e-17
vn -0.45315389351832513 -0.7848855672213959 -0.42261826174069955
vn -0.8660254037844388 0.5000000000000001 2.7755575615628914e-17
vn -0.21130913087034972 -0.36599815077066683 0.90630778703665
vn 0.21130913087034972 0.36599815077066683 -0.90630778703665
usemtl m_64554d13-de1f-a5db-eee1-69d4575050f6
f 172/508/127 175/507/127 173/506/127 170/505/127
f 171/512/128 172/511/128 170/510/128 169/509/128
f 176/516/129 171/515/129 169/514/129 174/513/129
f 175/520/130 176/519/130 174/518/130 173/517/130
f 174/524/131 169/523/131 170/522/131 173/521/131
f 175/528/132 172/527/132 171/526/132 176/525/132
o blade_A_9
v 1.0688679057397539 -0.39843328351576923 0.30473575970368905
v 1.1669786016424284 -0.34178904682597855 0.35756304242127646
v 1.0917427901629209 -0.3852264628363723 0.24809152301389842
v 1.1898534860655952 -0.3285822261465816 0.30091880573148583
v 0.8857286016424284 0.14535024280276826 0.35756304242127646
v 0.787617905739754 0.08870600611297763 0.30473575970368905
v 0.9086034860655952 0.15855706348216508 0.30091880573148583
v 0.8104927901629206 0.10191282679237446 0.24809152301389842
vt 0.3125 0.6875
vt 0.875 0.6875
vt 0.875 0.625
vt 0.3125 0.625
vt 0.3125 0.75
vt 0.375 0.75
vt 0.375 0.625
vt 0.3125 0.625
vt 0.875 0.75
vt 0.3125 0.75
vt 0.3125 0.6875
vt 0.875 0.6875
vt 0.8125 0.75
vt 0.875 0.75
vt 0.875 0.625
vt 0.8125 0.625
vt 0.875 0.625
vt 0.3125 0.625
vt 0.3125 0.75
vt 0.875 0.75
vt 0.875 0.75
vt 0.3125 0.75
vt 0.3125 0.625
vt 0.875 0.625
vn 0.7848855672213958 0.45315389351832513 0.4226182617406995
vn 0.5000000000000002 -0.8660254037844387 -2.7755575615628914e-17
vn -0.7848855672213958 -0.45315389351832513 -0.4226182617406995
vn -0.5000000000000002 0.8660254037844387 2.7755575615628914e-17
vn -0.36599815077066683 -0.2113091308703498 0.90630778703665
vn 0.36599815077066683 0.2113091308703498 -0.90630778703665
usemtl m_64554d13-de1f-a5db-eee1-69d4575050f6
f 180/532/133 183/531/133 181/530/133 178/529/133
f 179/536/134 180/535/134 178/534/134 177/533/134
f 184/540/135 179/539/135 177/538/135 182/537/135
f 183/544/136 184/543/136 182/542/136 181/541/136
f 182/548/137 177/547/137 178/546/137 181/545/137
f 183/552/138 180/551/138 179/550/138 184/549/138
o blade_A_10
v 0.5434374160103937 -0.5625000000000002 0.304735759703689
v 0.656725889389975 -0.5625000000000002 0.35756304242127646
v 0.5698510573691875 -0.5625000000000002 0.24809152301389836
v 0.6831395307487688 -0.5625000000000002 0.30091880573148583
v 0.656725889389975 -1.1102230246251565e-16 0.35756304242127646
v 0.5434374160103937 -1.1102230246251565e-16 0.30473575970368905
v 0.6831395307487688 -1.1102230246251565e-16 0.3009188057314859
v 0.5698510573691875 -1.1102230246251565e-16 0.2480915230138984
vt 0.3125 0.6875
vt 0.875 0.6875
vt 0.875 0.625
vt 0.3125 0.625
vt 0.3125 0.75
vt 0.375 0.75
vt 0.375 0.625
vt 0.3125 0.625
vt 0.875 0.75
vt 0.3125 0.75
vt 0.3125 0.6875
vt 0.875 0.6875
vt 0.8125 0.75
vt 0.875 0.75
vt 0.875 0.625
vt 0.8125 0.625
vt 0.875 0.625
vt 0.3125 0.625
vt 0.3125 0.75
vt 0.875 0.75
vt 0.875 0.75
vt 0.3125 0.75
vt 0.3125 0.625
vt 0.875 0.625
vn 0.9063077870366502 -2.3460026240579267e-17 0.4226182617406995
vn 2.447706708470913e-16 -1 -1.3086067579129446e-16
vn -0.9063077870366502 2.3460026240579267e-17 -0.4226182617406995
vn -2.447706708470913e-16 1 1.3086067579129446e-16
vn -0.42261826174069966 -5.0310188628258074e-17 0.9063077870366499
vn 0.42261826174069966 5.0310188628258074e-17 -0.9063077870366499
usemtl m_64554d13-de1f-a5db-eee1-69d4575050f6
f 188/556/139 191/555/139 189/554/139 186/553/139
f 187/560/140 188/559/140 186/558/140 185/557/140
f 192/564/141 187/563/141 185/562/141 190/561/141
f 191/568/142 192/567/142 190/566/142 189/565/142
f 190/572/143 185/571/143 186/570/143 189/569/143
f 191/576/144 188/575/144 187/574/144 192/573/144
o blade_A_11
v 0.006367905739753876 -0.4418706995261631 0.30473575970368905
v 0.10447860164242839 -0.49851493621595366 0.35756304242127646
v 0.02924279016292064 -0.45507752020556 0.24809152301389842
v 0.12735348606559516 -0.5117217568953507 0.30091880573148583
v 0.3857286016424284 -0.011375646587206911 0.35756304242127646
v 0.28761790573975393 0.04526859010258372 0.30473575970368905
v 0.40860348606559505 -0.024582467266603736 0.30091880573148583
v 0.3104927901629206 0.03206176942318689 0.24809152301389842
vt 0.3125 0.6875
vt 0.875 0.6875
vt 0.875 0.625
vt 0.3125 0.625
vt 0.3125 0.75
vt 0.375 0.75
vt 0.375 0.625
vt 0.3125 0.625
vt 0.875 0.75
vt 0.3125 0.75
vt 0.3125 0.6875
vt 0.875 0.6875
vt 0.8125 0.75
vt 0.875 0.75
vt 0.875 0.625
vt 0.8125 0.625
vt 0.875 0.625
vt 0.3125 0.625
vt 0.3125 0.75
vt 0.875 0.75
vt 0.875 0.75
vt 0.3125 0.75
vt 0.3125 0.625
vt 0.875 0.625
vn 0.7848855672213959 -0.4531538935183249 0.4226182617406994
vn -0.4999999999999998 -0.8660254037844389 -5.551115123125783e-17
vn -0.7848855672213959 0.4531538935183249 -0.4226182617406994
vn 0.4999999999999998 0.8660254037844389 5.551115123125783e-17
vn -0.36599815077066694 0.21130913087034975 0.9063077870366502
vn 0.36599815077066694 -0.21130913087034975 -0.9063077870366502
usemtl m_64554d13-de1f-a5db-eee1-69d4575050f6
f 196/580/145 199/579/145 197/578/145 194/577/145
f 195/584/146 196/583/146 194/582/146 193/581/146
f 200/588/147 195/587/147 193/586/147 198/585/147
f 199/592/148 200/591/148 198/590/148 197/589/148
f 198/596/149 193/595/149 194/594/149 197/593/149
f 199/600/150 196/599/150 195/598/150 200/597/150
o blade_A_12
v -0.39843328351576945 -0.06886790573975388 0.30473575970368905
v -0.34178904682597877 -0.1669786016424284 0.3575630424212765
v -0.3852264628363725 -0.09174279016292064 0.24809152301389842
v -0.32858222614658184 -0.18985348606559516 0.3009188057314859
v 0.1453502428027681 0.11427139835757161 0.35756304242127646
v 0.08870600611297752 0.21238209426024607 0.30473575970368905
v 0.15855706348216492 0.09139651393440495 0.3009188057314859
v 0.10191282679237434 0.18950720983707942 0.24809152301389842
vt 0.3125 0.6875
vt 0.875 0.6875
vt 0.875 0.625
vt 0.3125 0.625
vt 0.3125 0.75
vt 0.375 0.75
vt 0.375 0.625
vt 0.3125 0.625
vt 0.875 0.75
vt 0.3125 0.75
vt 0.3125 0.6875
vt 0.875 0.6875
vt 0.8125 0.75
vt 0.875 0.75
vt 0.875 0.625
vt 0.8125 0.625
vt 0.875 0.625
vt 0.3125 0.625
vt 0.3125 0.75
vt 0.875 0.75
vt 0.875 0.75
vt 0.3125 0.75
vt 0.3125 0.625
vt 0.875 0.625
vn 0.4531538935183249 -0.7848855672213959 0.42261826174069944
vn -0.8660254037844387 -0.5 -2.7755575615628907e-17
vn -0.4531538935183249 0.7848855672213959 -0.42261826174069944
vn 0.8660254037844387 0.5 2.7755575615628907e-17
vn -0.21130913087034972 0.36599815077066694 0.9063077870366502
vn 0.21130913087034972 -0.36599815077066694 -0.9063077870366502
usemtl m_64554d13-de1f-a5db-eee1-69d4575050f6
f 204/604/151 207/603/151 205/602/151 202/601/151
f 203/608/152 204/607/152 202/606/152 201/605/152
f 208/612/153 203/611/153 201/610/153 206/609/153
f 207/616/154 208/615/154 206/614/154 205/613/154
f 206/620/155 201/619/155 202/618/155 205/617/155
f 207/624/156 204/623/156 203/622/156 208/621/156
o center_rim_6
v 0.8125 0.8125 0.75
v 0.8125 0.8125 0.75
v 0.8125 0.1875 0.75
v 0.8125 0.1875 0.75
v 0.1875 0.8125 0.75
v 0.1875 0.8125 0.75
v 0.1875 0.1875 0.75
v 0.1875 0.1875 0.75
vt 0.15625 1
vt 0.3125 1
vt 0.3125 0.84375
vt 0.15625 0.84375
vt 0 0.375
vt 0 0.5
vt 0.5 0.5
vt 0.5 0.375
vt 0.15625 1
vt 0.3125 1
vt 0.3125 0.84375
vt 0.15625 0.84375
vt 0.5 0.5
vt 0.5 0.375
vt 0 0.375
vt 0 0.5
vt 0 0.5
vt 0.5 0.5
vt 0.5 0.375
vt 0 0.375
vt 0.5 0.375
vt 0 0.375
vt 0 0.5
vt 0.5 0.5
vn 0 0 -1
vn 1 0 0
vn 0 0 1
vn -1 0 0
vn 0 1 0
vn 0 -1 0
usemtl m_e2a00482-9177-2adc-1760-7d112da4187b
f 212/628/157 215/627/157 213/626/157 210/625/157
f 211/632/158 212/631/158 210/630/158 209/629/158
f 216/636/159 211/635/159 209/634/159 214/633/159
f 215/640/160 216/639/160 214/638/160 213/637/160
f 214/644/161 209/643/161 210/642/161 213/641/161
f 215/648/162 212/647/162 211/646/162 216/645/162
o center_rim_5
v 0.6875 0.875 0.75
v 0.6875 0.875 0.75
v 0.6875 0.125 0.75
v 0.6875 0.125 0.75
v 0.3125 0.875 0.75
v 0.3125 0.875 0.75
v 0.3125 0.125 0.75
v 0.3125 0.125 0.75
vt 0.3125 0.8125
vt 0.3125 0.90625
vt 0.5 0.90625
vt 0.5 0.8125
vt 0 0.375
vt 0 0.5
vt 0.5 0.5
vt 0.5 0.375
vt 0.3125 0.8125
vt 0.3125 0.90625
vt 0.5 0.90625
vt 0.5 0.8125
vt 0.5 0.5
vt 0.5 0.375
vt 0 0.375
vt 0 0.5
vt 0 0.5
vt 0.5 0.5
vt 0.5 0.375
vt 0 0.375
vt 0.5 0.375
vt 0 0.375
vt 0 0.5
vt 0.5 0.5
vn 0 0 -1
vn 1 0 0
vn 0 0 1
vn -1 0 0
vn 0 1 0
vn 0 -1 0
usemtl m_e2a00482-9177-2adc-1760-7d112da4187b
f 220/652/163 223/651/163 221/650/163 218/649/163
f 219/656/164 220/655/164 218/654/164 217/653/164
f 224/660/165 219/659/165 217/658/165 222/657/165
f 223/664/166 224/663/166 222/662/166 221/661/166
f 222/668/167 217/667/167 218/666/167 221/665/167
f 223/672/168 220/671/168 219/670/168 224/669/168
o center_rim_4
v 0.875 0.6875 0.75
v 0.875 0.6875 0.75
v 0.875 0.3125 0.75
v 0.875 0.3125 0.75
v 0.125 0.6875 0.75
v 0.125 0.6875 0.75
v 0.125 0.3125 0.75
v 0.125 0.3125 0.75
vt 0.3125 1
vt 0.5 1
vt 0.5 0.90625
vt 0.3125 0.90625
vt 0 0
vt 0 0.09375
vt 0.25 0.09375
vt 0.25 0
vt 0.3125 1
vt 0.5 1
vt 0.5 0.90625
vt 0.3125 0.90625
vt 0.25 0.09375
vt 0.25 0
vt 0 0
vt 0 0.09375
vt 0 0.09375
vt 0.25 0.09375
vt 0.25 0
vt 0 0
vt 0.5 0.90625
vt 0.3125 0.90625
vt 0.3125 1
vt 0.5 1
vn 0 0 -1
vn 1 0 0
vn 0 0 1
vn -1 0 0
vn 0 1 0
vn 0 -1 0
usemtl m_e2a00482-9177-2adc-1760-7d112da4187b
f 228/676/169 231/675/169 229/674/169 226/673/169
f 227/680/170 228/679/170 226/678/170 225/677/170
f 232/684/171 227/683/171 225/682/171 230/681/171
f 231/688/172 232/687/172 230/686/172 229/685/172
f 230/692/173 225/691/173 226/690/173 229/689/173
f 231/696/174 228/695/174 227/694/174 232/693/174
o rim_2
v 0.75 0.75 0.81875
v 0.75 0.75 0.68125
v 0.75 0.25 0.81875
v 0.75 0.25 0.68125
v 0.25 0.75 0.68125
v 0.25 0.75 0.81875
v 0.25 0.25 0.68125
v 0.25 0.25 0.81875
vt 0 1
vt 0.125 1
vt 0.125 0.875
vt 0 0.875
vt 0 0.84375
vt 0 0.875
vt 0.125 0.875
vt 0.125 0.84375
vt 0 1
vt 0.125 1
vt 0.125 0.875
vt 0 0.875
vt 0.125 0.875
vt 0.125 0.84375
vt 0 0.84375
vt 0 0.875
vt 0 0.875
vt 0.125 0.875
vt 0.125 0.84375
vt 0 0.84375
vt 0.125 0.84375
vt 0 0.84375
vt 0 0.875
vt 0.125 0.875
vn 0 0 -1
vn 1 0 0
vn 0 0 1
vn -1 0 0
vn 0 1 0
vn 0 -1 0
usemtl m_e2a00482-9177-2adc-1760-7d112da4187b
f 236/700/175 239/699/175 237/698/175 234/697/175
f 235/704/176 236/703/176 234/702/176 233/701/176
f 240/708/177 235/707/177 233/706/177 238/705/177
f 239/712/178 240/711/178 238/710/178 237/709/178
f 238/716/179 233/715/179 234/714/179 237/713/179
f 239/720/180 236/719/180 235/718/180 240/717/180
o blade_24
v 1.30069311134951 1.2019087986719037 0.7519084769861016
v 1.220586063592536 1.2820158464288776 0.804735759703689
v 1.2820158464288771 1.2205860635925365 0.695264240296311
v 1.2019087986719037 1.30069311134951 0.7480915230138984
v 0.6460618038784663 0.7074915867148075 0.804735759703689
v 0.7261688516354399 0.6273845389578339 0.7519084769861016
v 0.6273845389578339 0.72616885163544 0.7480915230138984
v 0.7074915867148074 0.6460618038784663 0.695264240296311
vt 0.0625 0.8125
vt 0.875 0.8125
vt 0.875 0.75
vt 0.0625 0.75
vt 0 0.875
vt 0.0625 0.875
vt 0.0625 0.75
vt 0 0.75
vt 0.875 0.875
vt 0.0625 0.875
vt 0.0625 0.8125
vt 0.875 0.8125
vt 0 1
vt 0.125 1
vt 0.125 1
vt 0 1
vt 0.875 0.75
vt 0.0625 0.75
vt 0.0625 0.875
vt 0.875 0.875
vt 0.875 0.875
vt 0.0625 0.875
vt 0.0625 0.75
vt 0.875 0.75
vn -0.6408563820557888 0.6408563820557885 0.4226182617406996
vn 0.7071067811865476 0.7071067811865475 1.1102230246251563e-16
vn 0.6408563820557888 -0.6408563820557885 -0.4226182617406996
vn -0.7071067811865476 -0.7071067811865475 -1.1102230246251563e-16
vn 0.29883623873011994 -0.29883623873011983 0.9063077870366502
vn -0.29883623873011994 0.29883623873011983 -0.9063077870366502
usemtl m_64554d13-de1f-a5db-eee1-69d4575050f6
f 244/724/181 247/723/181 245/722/181 242/721/181
f 243/728/182 244/727/182 242/726/182 241/725/182
f 248/732/183 243/731/183 241/730/183 246/729/183
f 247/736/184 248/735/184 246/734/184 245/733/184
f 246/740/185 241/739/185 242/738/185 245/737/185
f 247/744/186 244/743/186 243/742/186 248/741/186
o blade_23
v 1.5443749743998296 0.7075242951149308 0.7519084769861016
v 1.515053759898604 0.8169525573731299 0.804735759703689
v 1.537538620965666 0.7330379134697267 0.695264240296311
v 1.5082174064644405 0.8424661757279258 0.7480915230138984
v 0.730239026038736 0.6066620832273317 0.804735759703689
v 0.7595602405399615 0.49723382096913266 0.7519084769861016
v 0.7234026726045726 0.6321757015821277 0.7480915230138984
v 0.7527238871057982 0.5227474393239286 0.695264240296311
vt 0.0625 0.8125
vt 0.875 0.8125
vt 0.875 0.75
vt 0.0625 0.75
vt 0 0.875
vt 0.0625 0.875
vt 0.0625 0.75
vt 0 0.75
vt 0.875 0.875
vt 0.0625 0.875
vt 0.0625 0.8125
vt 0.875 0.8125
vt 0 1
vt 0.125 1
vt 0.125 1
vt 0 1
vt 0.875 0.75
vt 0.0625 0.75
vt 0.0625 0.875
vt 0.875 0.875
vt 0.875 0.875
vt 0.0625 0.875
vt 0.0625 0.75
vt 0.875 0.75
vn -0.23456971600980447 0.8754260980655931 0.4226182617406994
vn 0.9659258262890684 0.2588190451025208 -2.7755575615628926e-17
vn 0.23456971600980447 -0.8754260980655931 -0.4226182617406994
vn -0.9659258262890684 -0.2588190451025208 2.7755575615628926e-17
vn 0.10938165494661495 -0.40821789367673467 0.9063077870366499
vn -0.10938165494661495 0.40821789367673467 -0.9063077870366499
usemtl m_64554d13-de1f-a5db-eee1-69d4575050f6
f 252/748/187 255/747/187 253/746/187 250/745/187
f 251/752/188 252/751/188 250/750/188 249/749/188
f 256/756/189 251/755/189 249/754/189 254/753/189
f 255/760/190 256/759/190 254/758/190 253/757/190
f 254/764/191 249/763/191 250/762/191 253/761/191
f 255/768/192 252/767/192 251/766/192 256/765/192
o blade_22
v 1.5082174064644405 0.15753382427207419 0.7519084769861016
v 1.537538620965666 0.2669620865302733 0.804735759703689
v 1.515053759898604 0.18304744262687012 0.695264240296311
v 1.5443749743998296 0.29247570488506924 0.7480915230138984
v 0.7527238871057982 0.4772525606760714 0.804735759703689
v 0.7234026726045726 0.3678242984178723 0.7519084769861016
v 0.7595602405399615 0.5027661790308673 0.7480915230138984
v 0.730239026038736 0.3933379167726682 0.695264240296311
vt 0.0625 0.8125
vt 0.875 0.8125
vt 0.875 0.75
vt 0.0625 0.75
vt 0 0.875
vt 0.0625 0.875
vt 0.0625 0.75
vt 0 0.75
vt 0.875 0.875
vt 0.0625 0.875
vt 0.0625 0.8125
vt 0.875 0.8125
vt 0 1
vt 0.125 1
vt 0.125 1
vt 0 1
vt 0.875 0.75
vt 0.0625 0.75
vt 0.0625 0.875
vt 0.875 0.875
vt 0.875 0.875
vt 0.0625 0.875
vt 0.0625 0.75
vt 0.875 0.75
vn 0.23456971600980447 0.8754260980655931 0.4226182617406994
vn 0.9659258262890684 -0.2588190451025208 2.7755575615628926e-17
vn -0.23456971600980447 -0.8754260980655931 -0.4226182617406994
vn -0.9659258262890684 0.2588190451025208 -2.7755575615628926e-17
vn -0.10938165494661495 -0.40821789367673467 0.9063077870366499
vn 0.10938165494661495 0.40821789367673467 -0.9063077870366499
usemtl m_64554d13-de1f-a5db-eee1-69d4575050f6
f 260/772/193 263/771/193 261/770/193 258/769/193
f 259/776/194 260/775/194 258/774/194 257/773/194
f 264/780/195 259/779/195 257/778/195 262/777/195
f 263/784/196 264/783/196 262/782/196 261/781/196
f 262/788/197 257/787/197 258/786/197 261/785/197
f 263/792/198 260/791/198 259/790/198 264/789/198
o blade_21
v 1.2019087986719037 -0.30069311134951004 0.7519084769861016
v 1.2820158464288771 -0.2205860635925364 0.804735759703689
v 1.220586063592536 -0.28201584642887745 0.695264240296311
v 1.30069311134951 -0.2019087986719038 0.7480915230138984
v 0.7074915867148074 0.35393819612153365 0.804735759703689
v 0.6273845389578339 0.27383114836456 0.7519084769861016
v 0.7261688516354399 0.37261546104216614 0.7480915230138984
v 0.6460618038784663 0.2925084132851925 0.695264240296311
vt 0.0625 0.8125
vt 0.875 0.8125
vt 0.875 0.75
vt 0.0625 0.75
vt 0 0.875
vt 0.0625 0.875
vt 0.0625 0.75
vt 0 0.75
vt 0.875 0.875
vt 0.0625 0.875
vt 0.0625 0.8125
vt 0.875 0.8125
vt 0 1
vt 0.125 1
vt 0.125 1
vt 0 1
vt 0.875 0.75
vt 0.0625 0.75
vt 0.0625 0.875
vt 0.875 0.875
vt 0.875 0.875
vt 0.0625 0.875
vt 0.0625 0.75
vt 0.875 0.75
vn 0.6408563820557888 0.6408563820557885 0.4226182617406996
vn 0.7071067811865476 -0.7071067811865475 -1.1102230246251563e-16
vn -0.6408563820557888 -0.6408563820557885 -0.4226182617406996
vn -0.7071067811865476 0.7071067811865475 1.1102230246251563e-16
vn -0.29883623873011994 -0.29883623873011983 0.9063077870366502
vn 0.29883623873011994 0.29883623873011983 -0.9063077870366502
usemtl m_64554d13-de1f-a5db-eee1-69d4575050f6
f 268/796/199 271/795/199 269/794/199 266/793/199
f 267/800/200 268/799/200 266/798/200 265/797/200
f 272/804/201 267/803/201 265/802/201 270/801/201
f 271/808/202 272/807/202 270/806/202 269/805/202
f 270/812/203 265/811/203 266/810/203 269/809/203
f 271/816/204 268/815/204 267/814/204 272/813/204
o blade_20
v 0.7075242951149308 -0.5443749743998296 0.7519084769861016
v 0.8169525573731299 -0.515053759898604 0.804735759703689
v 0.7330379134697267 -0.5375386209656661 0.695264240296311
v 0.8424661757279258 -0.5082174064644405 0.7480915230138984
v 0.6066620832273317 0.269760973961264 0.804735759703689
v 0.49723382096913266 0.24043975946003843 0.7519084769861016
v 0.6321757015821277 0.2765973273954274 0.7480915230138984
v 0.5227474393239285 0.24727611289420187 0.695264240296311
vt 0.0625 0.8125
vt 0.875 0.8125
vt 0.875 0.75
vt 0.0625 0.75
vt 0 0.875
vt 0.0625 0.875
vt 0.0625 0.75
vt 0 0.75
vt 0.875 0.875
vt 0.0625 0.875
vt 0.0625 0.8125
vt 0.875 0.8125
vt 0 1
vt 0.125 1
vt 0.125 1
vt 0 1
vt 0.875 0.75
vt 0.0625 0.75
vt 0.0625 0.875
vt 0.875 0.875
vt 0.875 0.875
vt 0.0625 0.875
vt 0.0625 0.75
vt 0.875 0.75
vn 0.8754260980655931 0.2345697160098045 0.42261826174069944
vn 0.25881904510252074 -0.9659258262890684 -1.3877787807814457e-16
vn -0.8754260980655931 -0.2345697160098045 -0.42261826174069944
vn -0.25881904510252074 0.9659258262890684 1.3877787807814457e-16
vn -0.4082178936767347 -0.10938165494661499 0.9063077870366503
vn 0.4082178936767347 0.10938165494661499 -0.9063077870366503
usemtl m_64554d13-de1f-a5db-eee1-69d4575050f6
f 276/820/205 279/819/205 277/818/205 274/817/205
f 275/824/206 276/823/206 274/822/206 273/821/206
f 280/828/207 275/827/207 273/826/207 278/825/207
f 279/832/208 280/831/208 278/830/208 277/829/208
f 278/836/209 273/835/209 274/834/209 277/833/209
f 279/840/210 276/839/210 275/838/210 280/837/210
o blade_19
v 0.15753382427207419 -0.5082174064644405 0.7519084769861016
v 0.2669620865302733 -0.5375386209656661 0.804735759703689
v 0.18304744262687012 -0.515053759898604 0.695264240296311
v 0.29247570488506924 -0.5443749743998296 0.7480915230138984
v 0.4772525606760714 0.24727611289420187 0.804735759703689
v 0.3678242984178723 0.2765973273954274 0.7519084769861016
v 0.5027661790308674 0.24043975946003843 0.7480915230138984
v 0.3933379167726682 0.269760973961264 0.695264240296311
vt 0.0625 0.8125
vt 0.875 0.8125
vt 0.875 0.75
vt 0.0625 0.75
vt 0 0.875
vt 0.0625 0.875
vt 0.0625 0.75
vt 0 0.75
vt 0.875 0.875
vt 0.0625 0.875
vt 0.0625 0.8125
vt 0.875 0.8125
vt 0 1
vt 0.125 1
vt 0.125 1
vt 0 1
vt 0.875 0.75
vt 0.0625 0.75
vt 0.0625 0.875
vt 0.875 0.875
vt 0.875 0.875
vt 0.0625 0.875
vt 0.0625 0.75
vt 0.875 0.75
vn 0.8754260980655931 -0.2345697160098045 0.4226182617406994
vn -0.2588190451025207 -0.9659258262890684 -5.551115123125783e-17
vn -0.8754260980655931 0.2345697160098045 -0.4226182617406994
vn 0.2588190451025207 0.9659258262890684 5.551115123125783e-17
vn -0.4082178936767347 0.10938165494661499 0.9063077870366503
vn 0.4082178936767347 -0.10938165494661499 -0.9063077870366503
usemtl m_64554d13-de1f-a5db-eee1-69d4575050f6
f 284/844/211 287/843/211 285/842/211 282/841/211
f 283/848/212 284/847/212 282/846/212 281/845/212
f 288/852/213 283/851/213 281/850/213 286/849/213
f 287/856/214 288/855/214 286/854/214 285/853/214
f 286/860/215 281/859/215 282/858/215 285/857/215
f 287/864/216 284/863/216 283/862/216 288/861/216
o blade_18
v -0.30069311134951004 -0.20190879867190403 0.7519084769861016
v -0.2205860635925364 -0.28201584642887767 0.804735759703689
v -0.28201584642887745 -0.2205860635925364 0.695264240296311
v -0.2019087986719038 -0.30069311134951004 0.7480915230138984
v 0.35393819612153365 0.2925084132851925 0.804735759703689
v 0.27383114836456 0.3726154610421661 0.7519084769861016
v 0.37261546104216614 0.27383114836456 0.7480915230138984
v 0.2925084132851925 0.3539381961215336 0.695264240296311
vt 0.0625 0.8125
vt 0.875 0.8125
vt 0.875 0.75
vt 0.0625 0.75
vt 0 0.875
vt 0.0625 0.875
vt 0.0625 0.75
vt 0 0.75
vt 0.875 0.875
vt 0.0625 0.875
vt 0.0625 0.8125
vt 0.875 0.8125
vt 0 1
vt 0.125 1
vt 0.125 1
vt 0 1
vt 0.875 0.75
vt 0.0625 0.75
vt 0.0625 0.875
vt 0.875 0.875
vt 0.875 0.875
vt 0.0625 0.875
vt 0.0625 0.75
vt 0.875 0.75
vn 0.6408563820557887 -0.6408563820557885 0.42261826174069933
vn -0.7071067811865474 -0.7071067811865476 -5.55111512312578e-17
vn -0.6408563820557887 0.6408563820557885 -0.42261826174069933
vn 0.7071067811865474 0.7071067811865476 5.55111512312578e-17
vn -0.29883623873012 0.29883623873011994 0.90630778703665
vn 0.29883623873012 -0.29883623873011994 -0.90630778703665
usemtl m_64554d13-de1f-a5db-eee1-69d4575050f6
f 292/868/217 295/867/217 293/866/217 290/865/217
f 291/872/218 292/871/218 290/870/218 289/869/218
f 296/876/219 291/875/219 289/874/219 294/873/219
f 295/880/220 296/879/220 294/878/220 293/877/220
f 294/884/221 289/883/221 290/882/221 293/881/221
f 295/888/222 292/887/222 291/886/222 296/885/222
o blade_17
v -0.5443749743998296 0.2924757048850694 0.7519084769861016
v -0.515053759898604 0.18304744262687028 0.804735759703689
v -0.5375386209656661 0.2669620865302735 0.695264240296311
v -0.5082174064644405 0.15753382427207435 0.7480915230138984
v 0.269760973961264 0.3933379167726683 0.804735759703689
v 0.24043975946003848 0.5027661790308674 0.7519084769861016
v 0.2765973273954274 0.36782429841787234 0.7480915230138984
v 0.24727611289420193 0.47725256067607147 0.695264240296311
vt 0.0625 0.8125
vt 0.875 0.8125
vt 0.875 0.75
vt 0.0625 0.75
vt 0 0.875
vt 0.0625 0.875
vt 0.0625 0.75
vt 0 0.75
vt 0.875 0.875
vt 0.0625 0.875
vt 0.0625 0.8125
vt 0.875 0.8125
vt 0 1
vt 0.125 1
vt 0.125 1
vt 0 1
vt 0.875 0.75
vt 0.0625 0.75
vt 0.0625 0.875
vt 0.875 0.875
vt 0.875 0.875
vt 0.0625 0.875
vt 0.0625 0.75
vt 0.875 0.75
vn 0.23456971600980434 -0.875426098065593 0.42261826174069944
vn -0.9659258262890683 -0.2588190451025206 4.1633363423443376e-17
vn -0.23456971600980434 0.875426098065593 -0.42261826174069944
vn 0.9659258262890683 0.2588190451025206 -4.1633363423443376e-17
vn -0.1093816549466149 0.4082178936767347 0.9063077870366499
vn 0.1093816549466149 -0.4082178936767347 -0.9063077870366499
usemtl m_64554d13-de1f-a5db-eee1-69d4575050f6
f 300/892/223 303/891/223 301/890/223 298/889/223
f 299/896/224 300/895/224 298/894/224 297/893/224
f 304/900/225 299/899/225 297/898/225 302/897/225
f 303/904/226 304/903/226 302/902/226 301/901/226
f 302/908/227 297/907/227 298/906/227 301/905/227
f 303/912/228 300/911/228 299/910/228 304/909/228
o blade_16
v 0.8424661757279258 1.5082174064644405 0.7519084769861016
v 0.7330379134697267 1.537538620965666 0.804735759703689
v 0.8169525573731299 1.515053759898604 0.695264240296311
v 0.7075242951149308 1.5443749743998296 0.7480915230138984
v 0.5227474393239285 0.7527238871057982 0.804735759703689
v 0.6321757015821277 0.7234026726045726 0.7519084769861016
v 0.49723382096913266 0.7595602405399615 0.7480915230138984
v 0.6066620832273317 0.730239026038736 0.695264240296311
vt 0.0625 0.8125
vt 0.875 0.8125
vt 0.875 0.75
vt 0.0625 0.75
vt 0 0.875
vt 0.0625 0.875
vt 0.0625 0.75
vt 0 0.75
vt 0.875 0.875
vt 0.0625 0.875
vt 0.0625 0.8125
vt 0.875 0.8125
vt 0 1
vt 0.125 1
vt 0.125 1
vt 0 1
vt 0.875 0.75
vt 0.0625 0.75
vt 0.0625 0.875
vt 0.875 0.875
vt 0.875 0.875
vt 0.0625 0.875
vt 0.0625 0.75
vt 0.875 0.75
vn -0.8754260980655931 0.2345697160098045 0.42261826174069944
vn 0.25881904510252074 0.9659258262890684 1.3877787807814457e-16
vn 0.8754260980655931 -0.2345697160098045 -0.42261826174069944
vn -0.25881904510252074 -0.9659258262890684 -1.3877787807814457e-16
vn 0.4082178936767347 -0.10938165494661499 0.9063077870366503
vn -0.4082178936767347 0.10938165494661499 -0.9063077870366503
usemtl m_64554d13-de1f-a5db-eee1-69d4575050f6
f 308/916/229 311/915/229 309/914/229 306/913/229
f 307/920/230 308/919/230 306/918/230 305/917/230
f 312/924/231 307/923/231 305/922/231 310/921/231
f 311/928/232 312/927/232 310/926/232 309/925/232
f 310/932/233 305/931/233 306/930/233 309/929/233
f 311/936/234 308/935/234 307/934/234 312/933/234
o blade_15
v 0.29247570488506924 1.5443749743998296 0.7519084769861016
v 0.18304744262687012 1.515053759898604 0.804735759703689
v 0.2669620865302733 1.537538620965666 0.695264240296311
v 0.15753382427207419 1.5082174064644405 0.7480915230138984
v 0.3933379167726682 0.730239026038736 0.804735759703689
v 0.5027661790308674 0.7595602405399615 0.7519084769861016
v 0.3678242984178723 0.7234026726045726 0.7480915230138984
v 0.4772525606760714 0.7527238871057982 0.695264240296311
vt 0.0625 0.8125
vt 0.875 0.8125
vt 0.875 0.75
vt 0.0625 0.75
vt 0 0.875
vt 0.0625 0.875
vt 0.0625 0.75
vt 0 0.75
vt 0.875 0.875
vt 0.0625 0.875
vt 0.0625 0.8125
vt 0.875 0.8125
vt 0 1
vt 0.125 1
vt 0.125 1
vt 0 1
vt 0.875 0.75
vt 0.0625 0.75
vt 0.0625 0.875
vt 0.875 0.875
vt 0.875 0.875
vt 0.0625 0.875
vt 0.0625 0.75
vt 0.875 0.75
vn -0.8754260980655931 -0.2345697160098045 0.4226182617406994
vn -0.2588190451025207 0.9659258262890684 5.551115123125783e-17
vn 0.8754260980655931 0.2345697160098045 -0.4226182617406994
vn 0.2588190451025207 -0.9659258262890684 -5.551115123125783e-17
vn 0.4082178936767347 0.10938165494661499 0.9063077870366503
vn -0.4082178936767347 -0.10938165494661499 -0.9063077870366503
usemtl m_64554d13-de1f-a5db-eee1-69d4575050f6
f 316/940/235 319/939/235 317/938/235 314/937/235
f 315/944/236 316/943/236 314/942/236 313/941/236
f 320/948/237 315/947/237 313/946/237 318/945/237
f 319/952/238 320/951/238 318/950/238 317/949/238
f 318/956/239 313/955/239 314/954/239 317/953/239
f 319/960/240 316/959/240 315/958/240 320/957/240
o blade_14
v -0.2019087986719038 1.30069311134951 0.7519084769861016
v -0.28201584642887745 1.2205860635925365 0.804735759703689
v -0.2205860635925364 1.2820158464288776 0.695264240296311
v -0.30069311134951004 1.2019087986719041 0.7480915230138984
v 0.2925084132851925 0.6460618038784665 0.804735759703689
v 0.37261546104216614 0.72616885163544 0.7519084769861016
v 0.27383114836456 0.6273845389578339 0.7480915230138984
v 0.35393819612153365 0.7074915867148075 0.695264240296311
vt 0.0625 0.8125
vt 0.875 0.8125
vt 0.875 0.75
vt 0.0625 0.75
vt 0 0.875
vt 0.0625 0.875
vt 0.0625 0.75
vt 0 0.75
vt 0.875 0.875
vt 0.0625 0.875
vt 0.0625 0.8125
vt 0.875 0.8125
vt 0 1
vt 0.125 1
vt 0.125 1
vt 0 1
vt 0.875 0.75
vt 0.0625 0.75
vt 0.0625 0.875
vt 0.875 0.875
vt 0.875 0.875
vt 0.0625 0.875
vt 0.0625 0.75
vt 0.875 0.75
vn -0.6408563820557887 -0.6408563820557885 0.42261826174069933
vn -0.7071067811865474 0.7071067811865476 5.55111512312578e-17
vn 0.6408563820557887 0.6408563820557885 -0.42261826174069933
vn 0.7071067811865474 -0.7071067811865476 -5.55111512312578e-17
vn 0.29883623873012 0.29883623873011994 0.90630778703665
vn -0.29883623873012 -0.29883623873011994 -0.90630778703665
usemtl m_64554d13-de1f-a5db-eee1-69d4575050f6
f 324/964/241 327/963/241 325/962/241 322/961/241
f 323/968/242 324/967/242 322/966/242 321/965/242
f 328/972/243 323/971/243 321/970/243 326/969/243
f 327/976/244 328/975/244 326/974/244 325/973/244
f 326/980/245 321/979/245 322/978/245 325/977/245
f 327/984/246 324/983/246 323/982/246 328/981/246
o blade_A_24
v -0.515053759898604 0.18304744262687028 0.804735759703689
v -0.48573254539737853 0.07361918036867116 0.8575630424212765
v -0.5082174064644405 0.15753382427207435 0.7480915230138984
v -0.478896191963215 0.048105562013875225 0.8009188057314858
v 0.05760073189022247 0.21920489323883896 0.8575630424212765
v 0.028279517388996922 0.3286331554970381 0.804735759703689
v 0.06443708532438591 0.19369127488404303 0.8009188057314858
v 0.03511587082316037 0.30311953714224216 0.7480915230138984
vt 0.3125 0.6875
vt 0.875 0.6875
vt 0.875 0.625
vt 0.3125 0.625
vt 0.3125 0.75
vt 0.375 0.75
vt 0.375 0.625
vt 0.3125 0.625
vt 0.875 0.75
vt 0.3125 0.75
vt 0.3125 0.6875
vt 0.875 0.6875
vt 0.8125 0.75
vt 0.875 0.75
vt 0.875 0.625
vt 0.8125 0.625
vt 0.875 0.625
vt 0.3125 0.625
vt 0.3125 0.75
vt 0.875 0.75
vt 0.875 0.75
vt 0.3125 0.75
vt 0.3125 0.625
vt 0.875 0.625
vn 0.23456971600980434 -0.875426098065593 0.42261826174069944
vn -0.9659258262890683 -0.2588190451025206 4.1633363423443376e-17
vn -0.23456971600980434 0.875426098065593 -0.42261826174069944
vn 0.9659258262890683 0.2588190451025206 -4.1633363423443376e-17
vn -0.1093816549466149 0.4082178936767347 0.9063077870366499
vn 0.1093816549466149 -0.4082178936767347 -0.9063077870366499
usemtl m_64554d13-de1f-a5db-eee1-69d4575050f6
f 332/988/247 335/987/247 333/986/247 330/985/247
f 331/992/248 332/991/248 330/990/248 329/989/248
f 336/996/249 331/995/249 329/994/249 334/993/249
f 335/1000/250 336/999/250 334/998/250 333/997/250
f 334/1004/251 329/1003/251 330/1002/251 333/1001/251
f 335/1008/252 332/1007/252 331/1006/252 336/1005/252
o blade_A_23
v -0.2205860635925364 -0.28201584642887767 0.804735759703689
v -0.14047901583556288 -0.3621228941858512 0.8575630424212766
v -0.2019087986719038 -0.30069311134951004 0.7480915230138984
v -0.12180175091493028 -0.38080015910648357 0.8009188057314859
v 0.2572685485818703 0.035624670231582 0.8575630424212766
v 0.17716150082489673 0.11573171798855558 0.804735759703689
v 0.2759458135025028 0.016947405310949515 0.8009188057314859
v 0.19583876574552922 0.0970544530679231 0.7480915230138984
vt 0.3125 0.6875
vt 0.875 0.6875
vt 0.875 0.625
vt 0.3125 0.625
vt 0.3125 0.75
vt 0.375 0.75
vt 0.375 0.625
vt 0.3125 0.625
vt 0.875 0.75
vt 0.3125 0.75
vt 0.3125 0.6875
vt 0.875 0.6875
vt 0.8125 0.75
vt 0.875 0.75
vt 0.875 0.625
vt 0.8125 0.625
vt 0.875 0.625
vt 0.3125 0.625
vt 0.3125 0.75
vt 0.875 0.75
vt 0.875 0.75
vt 0.3125 0.75
vt 0.3125 0.625
vt 0.875 0.625
vn 0.6408563820557887 -0.6408563820557885 0.42261826174069933
vn -0.7071067811865474 -0.7071067811865476 -5.55111512312578e-17
vn -0.6408563820557887 0.6408563820557885 -0.42261826174069933
vn 0.7071067811865474 0.7071067811865476 5.55111512312578e-17
vn -0.29883623873012 0.29883623873011994 0.90630778703665
vn 0.29883623873012 -0.29883623873011994 -0.90630778703665
usemtl m_64554d13-de1f-a5db-eee1-69d4575050f6
f 340/1012/253 343/1011/253 341/1010/253 338/1009/253
f 339/1016/254 340/1015/254 338/1014/254 337/1013/254
f 344/1020/255 339/1019/255 337/1018/255 342/1017/255
f 343/1024/256 344/1023/256 342/1022/256 341/1021/256
f 342/1028/257 337/1027/257 338/1026/257 341/1025/257
f 343/1032/258 340/1031/258 339/1030/258 344/1029/258
o blade_A_22
v 0.2669620865302733 -0.5375386209656661 0.804735759703689
v 0.37639034878847244 -0.5668598354668917 0.8575630424212765
v 0.29247570488506924 -0.5443749743998296 0.7480915230138984
v 0.40190396714326837 -0.5736961889010552 0.8009188057314858
v 0.5219760616586404 -0.023526558179290724 0.8575630424212765
v 0.41254779940044123 0.005794656321934766 0.804735759703689
v 0.5474896800134363 -0.03036291161345417 0.8009188057314858
v 0.43806141775523716 -0.0010416971122286789 0.7480915230138984
vt 0.3125 0.6875
vt 0.875 0.6875
vt 0.875 0.625
vt 0.3125 0.625
vt 0.3125 0.75
vt 0.375 0.75
vt 0.375 0.625
vt 0.3125 0.625
vt 0.875 0.75
vt 0.3125 0.75
vt 0.3125 0.6875
vt 0.875 0.6875
vt 0.8125 0.75
vt 0.875 0.75
vt 0.875 0.625
vt 0.8125 0.625
vt 0.875 0.625
vt 0.3125 0.625
vt 0.3125 0.75
vt 0.875 0.75
vt 0.875 0.75
vt 0.3125 0.75
vt 0.3125 0.625
vt 0.875 0.625
vn 0.8754260980655931 -0.2345697160098045 0.4226182617406994
vn -0.2588190451025207 -0.9659258262890684 -5.551115123125783e-17
vn -0.8754260980655931 0.2345697160098045 -0.4226182617406994
vn 0.2588190451025207 0.9659258262890684 5.551115123125783e-17
vn -0.4082178936767347 0.10938165494661499 0.9063077870366503
vn 0.4082178936767347 -0.10938165494661499 -0.9063077870366503
usemtl m_64554d13-de1f-a5db-eee1-69d4575050f6
f 348/1036/259 351/1035/259 349/1034/259 346/1033/259
f 347/1040/260 348/1039/260 346/1038/260 345/1037/260
f 352/1044/261 347/1043/261 345/1042/261 350/1041/261
f 351/1048/262 352/1047/262 350/1046/262 349/1045/262
f 350/1052/263 345/1051/263 346/1050/263 349/1049/263
f 351/1056/264 348/1055/264 347/1054/264 352/1053/264
o blade_A_21
v 0.8169525573731299 -0.515053759898604 0.804735759703689
v 0.926380819631329 -0.48573254539737853 0.8575630424212765
v 0.8424661757279258 -0.5082174064644405 0.7480915230138984
v 0.9518944379861249 -0.478896191963215 0.8009188057314858
v 0.7807951067611612 0.05760073189022247 0.8575630424212765
v 0.6713668445029619 0.028279517388996922 0.804735759703689
v 0.8063087251159571 0.06443708532438591 0.8009188057314858
v 0.6968804628577578 0.03511587082316037 0.7480915230138984
vt 0.3125 0.6875
vt 0.875 0.6875
vt 0.875 0.625
vt 0.3125 0.625
vt 0.3125 0.75
vt 0.375 0.75
vt 0.375 0.625
vt 0.3125 0.625
vt 0.875 0.75
vt 0.3125 0.75
vt 0.3125 0.6875
vt 0.875 0.6875
vt 0.8125 0.75
vt 0.875 0.75
vt 0.875 0.625
vt 0.8125 0.625
vt 0.875 0.625
vt 0.3125 0.625
vt 0.3125 0.75
vt 0.875 0.75
vt 0.875 0.75
vt 0.3125 0.75
vt 0.3125 0.625
vt 0.875 0.625
vn 0.8754260980655931 0.2345697160098045 0.42261826174069944
vn 0.25881904510252074 -0.9659258262890684 -1.3877787807814457e-16
vn -0.8754260980655931 -0.2345697160098045 -0.42261826174069944
vn -0.25881904510252074 0.9659258262890684 1.3877787807814457e-16
vn -0.4082178936767347 -0.10938165494661499 0.9063077870366503
vn 0.4082178936767347 0.10938165494661499 -0.9063077870366503
usemtl m_64554d13-de1f-a5db-eee1-69d4575050f6
f 356/1060/265 359/1059/265 357/1058/265 354/1057/265
f 355/1064/266 356/1063/266 354/1062/266 353/1061/266
f 360/1068/267 355/1067/267 353/1066/267 358/1065/267
f 359/1072/268 360/1071/268 358/1070/268 357/1069/268
f 358/1076/269 353/1075/269 354/1074/269 357/1073/269
f 359/1080/270 356/1079/270 355/1078/270 360/1077/270
o blade_A_20
v 1.2820158464288771 -0.2205860635925364 0.804735759703689
v 1.3621228941858508 -0.14047901583556288 0.8575630424212765
v 1.30069311134951 -0.2019087986719038 0.7480915230138984
v 1.3808001591064833 -0.12180175091493028 0.8009188057314859
v 0.9643753297684179 0.2572685485818703 0.8575630424212765
v 0.8842682820114443 0.17716150082489668 0.804735759703689
v 0.9830525946890504 0.2759458135025028 0.8009188057314859
v 0.9029455469320767 0.19583876574552916 0.7480915230138984
vt 0.3125 0.6875
vt 0.875 0.6875
vt 0.875 0.625
vt 0.3125 0.625
vt 0.3125 0.75
vt 0.375 0.75
vt 0.375 0.625
vt 0.3125 0.625
vt 0.875 0.75
vt 0.3125 0.75
vt 0.3125 0.6875
vt 0.875 0.6875
vt 0.8125 0.75
vt 0.875 0.75
vt 0.875 0.625
vt 0.8125 0.625
vt 0.875 0.625
vt 0.3125 0.625
vt 0.3125 0.75
vt 0.875 0.75
vt 0.875 0.75
vt 0.3125 0.75
vt 0.3125 0.625
vt 0.875 0.625
vn 0.6408563820557888 0.6408563820557885 0.4226182617406996
vn 0.7071067811865476 -0.7071067811865475 -1.1102230246251563e-16
vn -0.6408563820557888 -0.6408563820557885 -0.4226182617406996
vn -0.7071067811865476 0.7071067811865475 1.1102230246251563e-16
vn -0.29883623873011994 -0.29883623873011983 0.9063077870366502
vn 0.29883623873011994 0.29883623873011983 -0.9063077870366502
usemtl m_64554d13-de1f-a5db-eee1-69d4575050f6
f 364/1084/271 367/1083/271 365/1082/271 362/1081/271
f 363/1088/272 364/1087/272 362/1086/272 361/1085/272
f 368/1092/273 363/1091/273 361/1090/273 366/1089/273
f 367/1096/274 368/1095/274 366/1094/274 365/1093/274
f 366/1100/275 361/1099/275 362/1098/275 365/1097/275
f 367/1104/276 364/1103/276 363/1102/276 368/1101/276
o blade_A_19
v 1.537538620965666 0.2669620865302733 0.804735759703689
v 1.5668598354668917 0.37639034878847244 0.8575630424212763
v 1.5443749743998296 0.29247570488506924 0.7480915230138984
v 1.5736961889010552 0.40190396714326837 0.8009188057314858
v 1.0235265581792907 0.5219760616586404 0.8575630424212765
v 0.9942053436780652 0.41254779940044123 0.804735759703689
v 1.0303629116134543 0.5474896800134363 0.8009188057314858
v 1.0010416971122287 0.43806141775523716 0.7480915230138984
vt 0.3125 0.6875
vt 0.875 0.6875
vt 0.875 0.625
vt 0.3125 0.625
vt 0.3125 0.75
vt 0.375 0.75
vt 0.375 0.625
vt 0.3125 0.625
vt 0.875 0.75
vt 0.3125 0.75
vt 0.3125 0.6875
vt 0.875 0.6875
vt 0.8125 0.75
vt 0.875 0.75
vt 0.875 0.625
vt 0.8125 0.625
vt 0.875 0.625
vt 0.3125 0.625
vt 0.3125 0.75
vt 0.875 0.75
vt 0.875 0.75
vt 0.3125 0.75
vt 0.3125 0.625
vt 0.875 0.625
vn 0.23456971600980447 0.8754260980655931 0.4226182617406994
vn 0.9659258262890684 -0.2588190451025208 2.7755575615628926e-17
vn -0.23456971600980447 -0.8754260980655931 -0.4226182617406994
vn -0.9659258262890684 0.2588190451025208 -2.7755575615628926e-17
vn -0.10938165494661495 -0.40821789367673467 0.9063077870366499
vn 0.10938165494661495 0.40821789367673467 -0.9063077870366499
usemtl m_64554d13-de1f-a5db-eee1-69d4575050f6
f 372/1108/277 375/1107/277 373/1106/277 370/1105/277
f 371/1112/278 372/1111/278 370/1110/278 369/1109/278
f 376/1116/279 371/1115/279 369/1114/279 374/1113/279
f 375/1120/280 376/1119/280 374/1118/280 373/1117/280
f 374/1124/281 369/1123/281 370/1122/281 373/1121/281
f 375/1128/282 372/1127/282 371/1126/282 376/1125/282
o blade_A_18
v 1.515053759898604 0.8169525573731299 0.804735759703689
v 1.4857325453973784 0.926380819631329 0.8575630424212765
v 1.5082174064644405 0.8424661757279258 0.7480915230138984
v 1.4788961919632149 0.9518944379861249 0.8009188057314858
v 0.9423992681097775 0.7807951067611612 0.8575630424212765
v 0.9717204826110031 0.6713668445029619 0.804735759703689
v 0.9355629146756141 0.8063087251159571 0.8009188057314858
v 0.9648841291768396 0.6968804628577578 0.7480915230138984
vt 0.3125 0.6875
vt 0.875 0.6875
vt 0.875 0.625
vt 0.3125 0.625
vt 0.3125 0.75
vt 0.375 0.75
vt 0.375 0.625
vt 0.3125 0.625
vt 0.875 0.75
vt 0.3125 0.75
vt 0.3125 0.6875
vt 0.875 0.6875
vt 0.8125 0.75
vt 0.875 0.75
vt 0.875 0.625
vt 0.8125 0.625
vt 0.875 0.625
vt 0.3125 0.625
vt 0.3125 0.75
vt 0.875 0.75
vt 0.875 0.75
vt 0.3125 0.75
vt 0.3125 0.625
vt 0.875 0.625
vn -0.23456971600980447 0.8754260980655931 0.4226182617406994
vn 0.9659258262890684 0.2588190451025208 -2.7755575615628926e-17
vn 0.23456971600980447 -0.8754260980655931 -0.4226182617406994
vn -0.9659258262890684 -0.2588190451025208 2.7755575615628926e-17
vn 0.10938165494661495 -0.40821789367673467 0.9063077870366499
vn -0.10938165494661495 0.40821789367673467 -0.9063077870366499
usemtl m_64554d13-de1f-a5db-eee1-69d4575050f6
f 380/1132/283 383/1131/283 381/1130/283 378/1129/283
f 379/1136/284 380/1135/284 378/1134/284 377/1133/284
f 384/1140/285 379/1139/285 377/1138/285 382/1137/285
f 383/1144/286 384/1143/286 382/1142/286 381/1141/286
f 382/1148/287 377/1147/287 378/1146/287 381/1145/287
f 383/1152/288 380/1151/288 379/1150/288 384/1149/288
o blade_A_17
v 1.220586063592536 1.2820158464288776 0.804735759703689
v 1.1404790158355627 1.362122894185851 0.8575630424212765
v 1.2019087986719037 1.30069311134951 0.7480915230138984
v 1.12180175091493 1.3808001591064836 0.8009188057314859
v 0.7427314514181296 0.964375329768418 0.8575630424212765
v 0.8228384991751032 0.8842682820114444 0.804735759703689
v 0.7240541864974971 0.9830525946890505 0.8009188057314859
v 0.8041612342544707 0.9029455469320768 0.7480915230138984
vt 0.3125 0.6875
vt 0.875 0.6875
vt 0.875 0.625
vt 0.3125 0.625
vt 0.3125 0.75
vt 0.375 0.75
vt 0.375 0.625
vt 0.3125 0.625
vt 0.875 0.75
vt 0.3125 0.75
vt 0.3125 0.6875
vt 0.875 0.6875
vt 0.8125 0.75
vt 0.875 0.75
vt 0.875 0.625
vt 0.8125 0.625
vt 0.875 0.625
vt 0.3125 0.625
vt 0.3125 0.75
vt 0.875 0.75
vt 0.875 0.75
vt 0.3125 0.75
vt 0.3125 0.625
vt 0.875 0.625
vn -0.6408563820557888 0.6408563820557885 0.4226182617406996
vn 0.7071067811865476 0.7071067811865475 1.1102230246251563e-16
vn 0.6408563820557888 -0.6408563820557885 -0.4226182617406996
vn -0.7071067811865476 -0.7071067811865475 -1.1102230246251563e-16
vn 0.29883623873011994 -0.29883623873011983 0.9063077870366502
vn -0.29883623873011994 0.29883623873011983 -0.9063077870366502
usemtl m_64554d13-de1f-a5db-eee1-69d4575050f6
f 388/1156/289 391/1155/289 389/1154/289 386/1153/289
f 387/1160/290 388/1159/290 386/1158/290 385/1157/290
f 392/1164/291 387/1163/291 385/1162/291 390/1161/291
f 391/1168/292 392/1167/292 390/1166/292 389/1165/292
f 390/1172/293 385/1171/293 386/1170/293 389/1169/293
f 391/1176/294 388/1175/294 387/1174/294 392/1173/294
o blade_A_16
v 0.7330379134697267 1.537538620965666 0.804735759703689
v 0.6236096512115276 1.5668598354668917 0.8575630424212765
v 0.7075242951149308 1.5443749743998296 0.7480915230138984
v 0.5980960328567316 1.5736961889010552 0.8009188057314858
v 0.4780239383413596 1.0235265581792907 0.8575630424212765
v 0.5874522005995588 0.9942053436780652 0.804735759703689
v 0.45251031998656366 1.0303629116134543 0.8009188057314858
v 0.5619385822447628 1.0010416971122287 0.7480915230138984
vt 0.3125 0.6875
vt 0.875 0.6875
vt 0.875 0.625
vt 0.3125 0.625
vt 0.3125 0.75
vt 0.375 0.75
vt 0.375 0.625
vt 0.3125 0.625
vt 0.875 0.75
vt 0.3125 0.75
vt 0.3125 0.6875
vt 0.875 0.6875
vt 0.8125 0.75
vt 0.875 0.75
vt 0.875 0.625
vt 0.8125 0.625
vt 0.875 0.625
vt 0.3125 0.625
vt 0.3125 0.75
vt 0.875 0.75
vt 0.875 0.75
vt 0.3125 0.75
vt 0.3125 0.625
vt 0.875 0.625
vn -0.8754260980655931 0.2345697160098045 0.42261826174069944
vn 0.25881904510252074 0.9659258262890684 1.3877787807814457e-16
vn 0.8754260980655931 -0.2345697160098045 -0.42261826174069944
vn -0.25881904510252074 -0.9659258262890684 -1.3877787807814457e-16
vn 0.4082178936767347 -0.10938165494661499 0.9063077870366503
vn -0.4082178936767347 0.10938165494661499 -0.9063077870366503
usemtl m_64554d13-de1f-a5db-eee1-69d4575050f6
f 396/1180/295 399/1179/295 397/1178/295 394/1177/295
f 395/1184/296 396/1183/296 394/1182/296 393/1181/296
f 400/1188/297 395/1187/297 393/1186/297 398/1185/297
f 399/1192/298 400/1191/298 398/1190/298 397/1189/298
f 398/1196/299 393/1195/299 394/1194/299 397/1193/299
f 399/1200/300 396/1199/300 395/1198/300 400/1197/300
o blade_A_15
v 0.18304744262687012 1.515053759898604 0.804735759703689
v 0.07361918036867099 1.4857325453973784 0.8575630424212765
v 0.15753382427207419 1.5082174064644405 0.7480915230138984
v 0.04810556201387506 1.4788961919632149 0.8009188057314858
v 0.21920489323883885 0.9423992681097775 0.8575630424212765
v 0.32863315549703803 0.9717204826110031 0.804735759703689
v 0.19369127488404292 0.9355629146756141 0.8009188057314858
v 0.3031195371422421 0.9648841291768396 0.7480915230138984
vt 0.3125 0.6875
vt 0.875 0.6875
vt 0.875 0.625
vt 0.3125 0.625
vt 0.3125 0.75
vt 0.375 0.75
vt 0.375 0.625
vt 0.3125 0.625
vt 0.875 0.75
vt 0.3125 0.75
vt 0.3125 0.6875
vt 0.875 0.6875
vt 0.8125 0.75
vt 0.875 0.75
vt 0.875 0.625
vt 0.8125 0.625
vt 0.875 0.625
vt 0.3125 0.625
vt 0.3125 0.75
vt 0.875 0.75
vt 0.875 0.75
vt 0.3125 0.75
vt 0.3125 0.625
vt 0.875 0.625
vn -0.8754260980655931 -0.2345697160098045 0.4226182617406994
vn -0.2588190451025207 0.9659258262890684 5.551115123125783e-17
vn 0.8754260980655931 0.2345697160098045 -0.4226182617406994
vn 0.2588190451025207 -0.9659258262890684 -5.551115123125783e-17
vn 0.4082178936767347 0.10938165494661499 0.9063077870366503
vn -0.4082178936767347 -0.10938165494661499 -0.9063077870366503
usemtl m_64554d13-de1f-a5db-eee1-69d4575050f6
f 404/1204/301 407/1203/301 405/1202/301 402/1201/301
f 403/1208/302 404/1207/302 402/1206/302 401/1205/302
f 408/1212/303 403/1211/303 401/1210/303 406/1209/303
f 407/1216/304 408/1215/304 406/1214/304 405/1213/304
f 406/1220/305 401/1219/305 402/1218/305 405/1217/305
f 407/1224/306 404/1223/306 403/1222/306 408/1221/306
o blade_A_14
v -0.28201584642887745 1.2205860635925365 0.804735759703689
v -0.362122894185851 1.1404790158355629 0.8575630424212766
v -0.30069311134951004 1.2019087986719041 0.7480915230138984
v -0.38080015910648357 1.1218017509149305 0.8009188057314859
v 0.035624670231582 0.7427314514181298 0.8575630424212766
v 0.11573171798855558 0.8228384991751034 0.804735759703689
v 0.016947405310949515 0.7240541864974973 0.8009188057314859
v 0.0970544530679231 0.8041612342544708 0.7480915230138984
vt 0.3125 0.6875
vt 0.875 0.6875
vt 0.875 0.625
vt 0.3125 0.625
vt 0.3125 0.75
vt 0.375 0.75
vt 0.375 0.625
vt 0.3125 0.625
vt 0.875 0.75
vt 0.3125 0.75
vt 0.3125 0.6875
vt 0.875 0.6875
vt 0.8125 0.75
vt 0.875 0.75
vt 0.875 0.625
vt 0.8125 0.625
vt 0.875 0.625
vt 0.3125 0.625
vt 0.3125 0.75
vt 0.875 0.75
vt 0.875 0.75
vt 0.3125 0.75
vt 0.3125 0.625
vt 0.875 0.625
vn -0.6408563820557887 -0.6408563820557885 0.42261826174069933
vn -0.7071067811865474 0.7071067811865476 5.55111512312578e-17
vn 0.6408563820557887 0.6408563820557885 -0.42261826174069933
vn 0.7071067811865474 -0.7071067811865476 -5.55111512312578e-17
vn 0.29883623873012 0.29883623873011994 0.90630778703665
vn -0.29883623873012 -0.29883623873011994 -0.90630778703665
usemtl m_64554d13-de1f-a5db-eee1-69d4575050f6
f 412/1228/307 415/1227/307 413/1226/307 410/1225/307
f 411/1232/308 412/1231/308 410/1230/308 409/1229/308
f 416/1236/309 411/1235/309 409/1234/309 414/1233/309
f 415/1240/310 416/1239/310 414/1238/310 413/1237/310
f 414/1244/311 409/1243/311 410/1242/311 413/1241/311
f 415/1248/312 412/1247/312 411/1246/312 416/1245/312
o blade_A_13
v -0.5375386209656661 0.7330379134697265 0.804735759703689
v -0.5668598354668917 0.6236096512115274 0.8575630424212763
v -0.5443749743998296 0.7075242951149305 0.7480915230138984
v -0.5736961889010552 0.5980960328567315 0.8009188057314858
v -0.023526558179290724 0.4780239383413596 0.8575630424212765
v 0.005794656321934877 0.5874522005995587 0.804735759703689
v -0.03036291161345417 0.45251031998656366 0.8009188057314858
v -0.0010416971122285679 0.5619385822447628 0.7480915230138984
vt 0.3125 0.6875
vt 0.875 0.6875
vt 0.875 0.625
vt 0.3125 0.625
vt 0.3125 0.75
vt 0.375 0.75
vt 0.375 0.625
vt 0.3125 0.625
vt 0.875 0.75
vt 0.3125 0.75
vt 0.3125 0.6875
vt 0.875 0.6875
vt 0.8125 0.75
vt 0.875 0.75
vt 0.875 0.625
vt 0.8125 0.625
vt 0.875 0.625
vt 0.3125 0.625
vt 0.3125 0.75
vt 0.875 0.75
vt 0.875 0.75
vt 0.3125 0.75
vt 0.3125 0.625
vt 0.875 0.625
vn -0.23456971600980434 -0.875426098065593 0.42261826174069944
vn -0.9659258262890683 0.2588190451025206 -4.1633363423443376e-17
vn 0.23456971600980434 0.875426098065593 -0.42261826174069944
vn 0.9659258262890683 -0.2588190451025206 4.1633363423443376e-17
vn 0.1093816549466149 0.4082178936767347 0.9063077870366499
vn -0.1093816549466149 -0.4082178936767347 -0.9063077870366499
usemtl m_64554d13-de1f-a5db-eee1-69d4575050f6
f 420/1252/313 423/1251/313 421/1250/313 418/1249/313
f 419/1256/314 420/1255/314 418/1254/314 417/1253/314
f 424/1260/315 419/1259/315 417/1258/315 422/1257/315
f 423/1264/316 424/1263/316 422/1262/316 421/1261/316
f 422/1268/317 417/1267/317 418/1266/317 421/1265/317
f 423/1272/318 420/1271/318 419/1270/318 424/1269/318
o blade_13
v -0.5082174064644405 0.8424661757279257 0.7519084769861016
v -0.5375386209656661 0.7330379134697265 0.804735759703689
v -0.515053759898604 0.8169525573731298 0.695264240296311
v -0.5443749743998296 0.7075242951149305 0.7480915230138984
v 0.24727611289420193 0.5227474393239285 0.804735759703689
v 0.2765973273954274 0.6321757015821277 0.7519084769861016
v 0.24043975946003848 0.4972338209691326 0.7480915230138984
v 0.269760973961264 0.6066620832273317 0.695264240296311
vt 0.0625 0.8125
vt 0.875 0.8125
vt 0.875 0.75
vt 0.0625 0.75
vt 0 0.875
vt 0.0625 0.875
vt 0.0625 0.75
vt 0 0.75
vt 0.875 0.875
vt 0.0625 0.875
vt 0.0625 0.8125
vt 0.875 0.8125
vt 0 1
vt 0.125 1
vt 0.125 1
vt 0 1
vt 0.875 0.75
vt 0.0625 0.75
vt 0.0625 0.875
vt 0.875 0.875
vt 0.875 0.875
vt 0.0625 0.875
vt 0.0625 0.75
vt 0.875 0.75
vn -0.23456971600980434 -0.875426098065593 0.42261826174069944
vn -0.9659258262890683 0.2588190451025206 -4.1633363423443376e-17
vn 0.23456971600980434 0.875426098065593 -0.42261826174069944
vn 0.9659258262890683 -0.2588190451025206 4.1633363423443376e-17
vn 0.1093816549466149 0.4082178936767347 0.9063077870366499
vn -0.1093816549466149 -0.4082178936767347 -0.9063077870366499
usemtl m_64554d13-de1f-a5db-eee1-69d4575050f6
f 428/1276/319 431/1275/319 429/1274/319 426/1273/319
f 427/1280/320 428/1279/320 426/1278/320 425/1277/320
f 432/1284/321 427/1283/321 425/1282/321 430/1281/321
f 431/1288/322 432/1287/322 430/1286/322 429/1285/322
f 430/1292/323 425/1291/323 426/1290/323 429/1289/323
f 431/1296/324 428/1295/324 427/1294/324 432/1293/324
o center_rim_3
v 0.6875 0.875 0.25
v 0.6875 0.875 0.25
v 0.6875 0.125 0.25
v 0.6875 0.125 0.25
v 0.3125 0.875 0.25
v 0.3125 0.875 0.25
v 0.3125 0.125 0.25
v 0.3125 0.125 0.25
vt 0.3125 0.8125
vt 0.3125 0.90625
vt 0.5 0.90625
vt 0.5 0.8125
vt 0 0.375
vt 0 0.5
vt 0.5 0.5
vt 0.5 0.375
vt 0.3125 0.8125
vt 0.3125 0.90625
vt 0.5 0.90625
vt 0.5 0.8125
vt 0.5 0.5
vt 0.5 0.375
vt 0 0.375
vt 0 0.5
vt 0 0.5
vt 0.5 0.5
vt 0.5 0.375
vt 0 0.375
vt 0.5 0.375
vt 0 0.375
vt 0 0.5
vt 0.5 0.5
vn 0 0 -1
vn 1 0 0
vn 0 0 1
vn -1 0 0
vn 0 1 0
vn 0 -1 0
usemtl m_e2a00482-9177-2adc-1760-7d112da4187b
f 436/1300/325 439/1299/325 437/1298/325 434/1297/325
f 435/1304/326 436/1303/326 434/1302/326 433/1301/326
f 440/1308/327 435/1307/327 433/1306/327 438/1305/327
f 439/1312/328 440/1311/328 438/1310/328 437/1309/328
f 438/1316/329 433/1315/329 434/1314/329 437/1313/329
f 439/1320/330 436/1319/330 435/1318/330 440/1317/330
o center_rim_2
v 0.875 0.6875 0.25
v 0.875 0.6875 0.25
v 0.875 0.3125 0.25
v 0.875 0.3125 0.25
v 0.125 0.6875 0.25
v 0.125 0.6875 0.25
v 0.125 0.3125 0.25
v 0.125 0.3125 0.25
vt 0.3125 1
vt 0.5 1
vt 0.5 0.90625
vt 0.3125 0.90625
vt 0 0
vt 0 0.09375
vt 0.25 0.09375
vt 0.25 0
vt 0.3125 1
vt 0.5 1
vt 0.5 0.90625
vt 0.3125 0.90625
vt 0.25 0.09375
vt 0.25 0
vt 0 0
vt 0 0.09375
vt 0 0.09375
vt 0.25 0.09375
vt 0.25 0
vt 0 0
vt 0.5 0.90625
vt 0.3125 0.90625
vt 0.3125 1
vt 0.5 1
vn 0 0 -1
vn 1 0 0
vn 0 0 1
vn -1 0 0
vn 0 1 0
vn 0 -1 0
usemtl m_e2a00482-9177-2adc-1760-7d112da4187b
f 444/1324/331 447/1323/331 445/1322/331 442/1321/331
f 443/1328/332 444/1327/332 442/1326/332 441/1325/332
f 448/1332/333 443/1331/333 441/1330/333 446/1329/333
f 447/1336/334 448/1335/334 446/1334/334 445/1333/334
f 446/1340/335 441/1339/335 442/1338/335 445/1337/335
f 447/1344/336 444/1343/336 443/1342/336 448/1341/336
o center_rim_1
v 0.8125 0.8125 0.25
v 0.8125 0.8125 0.25
v 0.8125 0.1875 0.25
v 0.8125 0.1875 0.25
v 0.1875 0.8125 0.25
v 0.1875 0.8125 0.25
v 0.1875 0.1875 0.25
v 0.1875 0.1875 0.25
vt 0.15625 1
vt 0.3125 1
vt 0.3125 0.84375
vt 0.15625 0.84375
vt 0 0.375
vt 0 0.5
vt 0.5 0.5
vt 0.5 0.375
vt 0.15625 1
vt 0.3125 1
vt 0.3125 0.84375
vt 0.15625 0.84375
vt 0.5 0.5
vt 0.5 0.375
vt 0 0.375
vt 0 0.5
vt 0 0.5
vt 0.5 0.5
vt 0.5 0.375
vt 0 0.375
vt 0.5 0.375
vt 0 0.375
vt 0 0.5
vt 0.5 0.5
vn 0 0 -1
vn 1 0 0
vn 0 0 1
vn -1 0 0
vn 0 1 0
vn 0 -1 0
usemtl m_e2a00482-9177-2adc-1760-7d112da4187b
f 452/1348/337 455/1347/337 453/1346/337 450/1345/337
f 451/1352/338 452/1351/338 450/1350/338 449/1349/338
f 456/1356/339 451/1355/339 449/1354/339 454/1353/339
f 455/1360/340 456/1359/340 454/1358/340 453/1357/340
f 454/1364/341 449/1363/341 450/1362/341 453/1361/341
f 455/1368/342 452/1367/342 451/1366/342 456/1365/342